<svg xmlns="http://www.w3.org/2000/svg" width="247.688" height="135.138" viewBox="0 0 247.688 135.138"><defs><style>.a{fill:#fff;}.b{opacity:0.3;}</style></defs><g transform="translate(-44.872 -103.738)"><g transform="translate(44.872 103.738)"><g transform="translate(84.86 30.216)"><path class="a" d="M112.917,152.6l-.023-.141c4.208-2.492,4.363-6.946,3.614-10.458q-7.225,1.16-8.459-6.51-1.269-7.894,6.675-9.167,7.811-1.255,9.317,8.119C125.6,144.155,120.741,150.9,112.917,152.6Z" transform="translate(-107.874 -126.171)"/></g><path class="a" d="M63.052,200.364a14.915,14.915,0,0,1,7.463-1.864,5.424,5.424,0,0,0-1.292-2.342c-.828-.645-2.249,0-2.249,0a2.5,2.5,0,0,0,.435-3.685c-3.005-3.222-9.525-2.769-9.525-2.769-10.86-1.864-9.117-8.844-2.631-9.465,6.985-.669,6.363,3.49,5.5,3.633-.144-1.146-2.392-2.2-3.445-.812s1.387,4.637,4.4,2.82c1.911-1.152,1.991-3.278,1-5.093-.942-1.728-3.01-3.177-7.516-3.427-4.965-.276-8.269-1.281-7.551-3.528C49.022,169.522,58.7,172.4,58.7,172.4a6.322,6.322,0,0,1-.765-3.359s-8.181-2.473-8.181-4.53c0-3.155,8.373,2.344,10.359,0s-2.656-6.644-2.656-6.644c3.827,1.864,10.191,2.438,10.191,2.438a30.964,30.964,0,0,1-.335-4.255c-2.057.1-13.4.431-14.593-6.644s6.124-10.277,9.664-8.03c3.629,2.3,3.254,5.928,2.105,6.931a2.268,2.268,0,0,0-3.206-2.2c-1.728,1.11-1.483,3.538.527,4.542,2.877,1.437,8.995-3.777,3.541-9.992a8.8,8.8,0,0,0-15.406,6.5c.574,8.8,8.11,11.617,6.124,13.624s-8.708-3.681-9.354.932,5.813,7.123,5.813,7.123c-3.732-.908-8.875,1.363-7.392,5.068s6,4.135,6,4.135-4.737,1.72-3.828,6.213c.836,4.138,4.593,5.258,8.708,6.6,0,0-4.413,1.659-2.583,4.78,2.3,3.921,7.559,3.586,7.559,3.586s-2.823,1.864-1.674,3.49c2.948,4.173,10.622,1.482,10.622,1.482C65.06,205.335,59.271,202.468,63.052,200.364Zm-4.84-3.847c-2.606-1.441-.6-4.391,3.072-4.188,3.941.218,4.658,2.631,3.265,3.742A6.27,6.27,0,0,1,58.212,196.517Z" transform="translate(-44.872 -91.982)"/><ellipse class="a" cx="2.344" cy="3.036" rx="2.344" ry="3.036" transform="translate(15.647 81.019) rotate(-79.188)"/><path class="a" d="M63.15,162.22c-.92-2.3-4.616-2.617-5.8-1.685,0,0,3.3-1.756.537-5.486,0,0,4.522,2.438,5.262,7.171" transform="translate(-40.543 -85.937)"/><path class="a" d="M67.818,177.169s-3.2,3.23-1.759,8.988c1.232,4.923,6.4,5.784,6.161,10.8,2.248-5.928-4.593-8.127-3.732-13.5,2.488,6,12.1,5.613,11.769,12.544,2.082-10.708-10.142-9.752-12.439-18.835Z" transform="translate(-37.651 -78.263)"/><path class="a" d="M69.131,179.025a5.69,5.69,0,0,0-1.364-2.789c-.733-.819-.541-.51-.249.339a8.472,8.472,0,0,1,.376,1.456,3.011,3.011,0,0,1-.039,1.569c-.2.523-1.274,1.6-2.761.248a5.363,5.363,0,0,1-1.3-3.828,40.393,40.393,0,0,1,.321-4.562,19.484,19.484,0,0,0-.031-3.622,14.906,14.906,0,0,0-.71-3.467c-.062-.174-.19-.333-.23.012a2.843,2.843,0,0,1-2.1,2.062,5.037,5.037,0,0,1-1.577.209,7.257,7.257,0,0,1-1.335-.189,3.122,3.122,0,0,0-.414-.127c-.268-.059-.2.008-.113.042a4.971,4.971,0,0,1,2.718,4.092c.269,2.034-.055,4.387.414,6.4a9.2,9.2,0,0,0,2.722,4.784,4.064,4.064,0,0,0,2.573,1.08,2.934,2.934,0,0,0,2.3-1.059A3.278,3.278,0,0,0,69.131,179.025Z" transform="translate(-40.479 -82.77)"/><path class="a" d="M47.314,146.86a11.06,11.06,0,0,0,3.157,7.074s-2.966-1.577-4.5.478A14.105,14.105,0,0,1,47.314,146.86Z" transform="translate(-44.513 -88.778)"/><path class="a" d="M104.152,212.049c15.769-6.837,26.757-22.164,26.757-39.976,0-24.177-20.243-43.775-45.212-43.775a45.9,45.9,0,0,0-29.688,10.758c5.047.079,9.128,3.731,9.275,8.276,4.98-7.6,12.137-12.365,20.089-12.365,15.041,0,27.235,17.048,27.235,38.076,0,14.7-5.956,27.449-14.679,33.8-6-3.226-10.392-.19-10.392-.19,1.053,6.5-3.685,9.167-3.685,9.167h0c10.575.035,29.618,28.12,48.659,6.13C119.262,230.093,111.214,219.484,104.152,212.049Z" transform="translate(-41.008 -95.217)"/><g transform="translate(25.075)"><path class="a" d="M67.953,128.419s13.306-3.586,26.966,0a7.1,7.1,0,0,0,.508-1.96s-14.95-3.634-27.943,0A3.471,3.471,0,0,0,67.953,128.419Z" transform="translate(-62.106 -96.416)"/><path class="a" d="M100.19,113.394a4.761,4.761,0,0,0-5.45-1.135,7.242,7.242,0,0,0-1.2-3.19c-1.579-2.151-6.985-3.537-10.909,1.387-3.922-4.924-9.329-3.538-10.907-1.387a7.242,7.242,0,0,0-1.2,3.19,4.76,4.76,0,0,0-5.45,1.135c-1.111,1.548-2.811,6.89,4.93,12.389-1.5.221-2.986.494-4.456.831a2.952,2.952,0,0,0,.574,1.96s16.268-3.586,32.965,0a6.137,6.137,0,0,0,.622-1.96s-1.739-.346-4.607-.717C103.026,120.357,101.308,114.952,100.19,113.394Zm-33.051,1.965a2.837,2.837,0,0,1,3.324-1.216c.221,2.907,1.91,6.635,7.135,10.451l-.022.019C67.7,125.826,66.031,117.289,67.139,115.359ZM80.9,125h-.372c-5.59-5-7.24-10.658-6.083-13.4.932-2.208,4.709-2.45,6.811.213Zm3.774.05-.319-.009L84,111.816c1.794-2.233,5.879-2.42,6.811-.213C91.974,114.354,90.309,120.041,84.678,125.051Zm3.084-.431c-.02-.02-.04-.046-.055-.061,5.188-3.8,6.871-7.519,7.092-10.417a2.837,2.837,0,0,1,3.324,1.216C99.229,117.284,97.571,125.78,87.762,124.62Z" transform="translate(-63.277 -102.568)"/><path class="a" d="M80.587,107.849a2.021,2.021,0,0,1-2.15,1.8,2.347,2.347,0,0,1-2.252-1.94c0-1.845,2.807-1.845,2.252-3.967C79.513,104.138,80.734,106.347,80.587,107.849Z" transform="translate(-59.083 -103.738)"/><circle class="a" cx="1.083" cy="1.083" r="1.083" transform="translate(5.266 26.672)"/><circle class="a" cx="1.083" cy="1.083" r="1.083" transform="translate(11.768 25.666)"/><circle class="a" cx="1.083" cy="1.083" r="1.083" transform="translate(18.271 25.264)"/><circle class="a" cx="1.083" cy="1.083" r="1.083" transform="translate(24.773 25.666)"/><circle class="a" cx="1.083" cy="1.083" r="1.083" transform="translate(31.276 26.672)"/><g transform="translate(2.818 12.403)"><path class="a" d="M66.51,117.146a2.385,2.385,0,0,1,1.565-3.009,4.2,4.2,0,0,1,2.041-.2,6.283,6.283,0,0,1,1.149.295,1.871,1.871,0,0,0,1.139.209.3.3,0,0,0,.179-.439c-.206-.446-.714-.59-1.149-.731a6.808,6.808,0,0,0-1.373-.294,4.635,4.635,0,0,0-2.516.414,3.256,3.256,0,0,0-1.778,3.961.4.4,0,0,0,.474.269.387.387,0,0,0,.268-.474Z" transform="translate(-65.581 -112.947)"/></g><g transform="translate(9.612 9.064)"><path class="a" d="M71.436,114.778a3.844,3.844,0,0,1,2.958-3.176,4.953,4.953,0,0,1,4.493,1.25c.3.275.546.6.834.886s.885.368.873-.187a1.87,1.87,0,0,0-.676-1.118,7.126,7.126,0,0,0-.96-.828,5.784,5.784,0,0,0-4.988-.917,4.715,4.715,0,0,0-3.344,4.091.408.408,0,0,0,.405.4.415.415,0,0,0,.405-.4Z" transform="translate(-70.624 -110.467)"/></g><g transform="translate(19.177 9.042)"><path class="a" d="M78.541,113.387a4.589,4.589,0,0,1,3.781-1.954,4.247,4.247,0,0,1,3.662,2.249,4.459,4.459,0,0,1,.447,1.16c.05.211.085.422.144.632a4.029,4.029,0,0,0,.263.648.242.242,0,0,0,.413,0,1.854,1.854,0,0,0,.21-1.377,5.525,5.525,0,0,0-.461-1.32,5.6,5.6,0,0,0-1.816-2.1,5.292,5.292,0,0,0-7.392,1.623c-.294.477.44.9.748.436Z" transform="translate(-77.726 -110.451)"/></g><g transform="translate(29.568 12.445)"><path class="a" d="M86,114.2a3.658,3.658,0,0,1,3.513.174,3.531,3.531,0,0,1,1.131,1.1,4.392,4.392,0,0,1,.373.7,1.207,1.207,0,0,0,.585.745.322.322,0,0,0,.319-.083,1.037,1.037,0,0,0,.054-1.079,4.167,4.167,0,0,0-.486-.9,4.711,4.711,0,0,0-1.54-1.375,4.592,4.592,0,0,0-4.322.081c-.42.23-.05.851.373.638Z" transform="translate(-85.441 -112.977)"/></g><g transform="translate(0 17.579)"><path class="a" d="M66.621,116.924a2.226,2.226,0,0,0-2.022.268,2.553,2.553,0,0,0-1.1,1.948,4,4,0,0,0,2.377,3.692,8.621,8.621,0,0,0,1.351.559c.236.077.471.145.71.21a2.311,2.311,0,0,0,.787.152.4.4,0,0,0,.341-.2.57.57,0,0,0,.054-.2.392.392,0,0,0-.2-.341,2.355,2.355,0,0,0-.71-.242c-.238-.066-.475-.135-.71-.213a7.251,7.251,0,0,1-1.218-.51,3.835,3.835,0,0,1-1.632-1.564,2.169,2.169,0,0,1,.044-2.156,1.556,1.556,0,0,1,1.711-.644c.5.158.676-.583.211-.765Z" transform="translate(-63.488 -116.789)"/></g><g transform="translate(33.626 18.02)"><path class="a" d="M89.948,117.943c.738-.144,1.855-.311,2.336.451.4.638,0,1.568-.337,2.151a4.667,4.667,0,0,1-1.476,1.562,5.767,5.767,0,0,1-.958.5,3.461,3.461,0,0,0-1,.541.2.2,0,0,0,.04.308,1.454,1.454,0,0,0,1.03.073,4.651,4.651,0,0,0,1.009-.427,5.625,5.625,0,0,0,1.661-1.436c.855-1.1,1.672-3.109.272-4.136a3.2,3.2,0,0,0-2.746-.207c-.405.1-.232.7.172.621Z" transform="translate(-88.453 -117.116)"/></g></g><path class="a" d="M73.279,192.748a6.1,6.1,0,0,0-2.1-5.641s5.015,1.864,5.971,5.879A7.92,7.92,0,0,1,73.279,192.748Z" transform="translate(-35.744 -74.815)"/><path class="a" d="M66.442,186.4c.527,2.653,3.206,3.25,3.875,5.307,0,0-5.64-.4-7.559-2.3C62.758,189.409,66.155,189.409,66.442,186.4Z" transform="translate(-38.667 -75.061)"/></g><g transform="translate(162.236 129.86)"><g transform="translate(12.533)"><path class="a" d="M148.7,140.395a7.951,7.951,0,0,1-5.416-1.721,6.277,6.277,0,0,1-1.971-5A10.736,10.736,0,0,1,142.8,128.1a9.411,9.411,0,0,1,4.177-3.785,10.044,10.044,0,0,1,4.247-.849,8.889,8.889,0,0,1,4.885,1.179l-.684,2.947H153.7a3.854,3.854,0,0,0-2.691-.92,3.989,3.989,0,0,0-2.878,1.168,6.484,6.484,0,0,0-1.7,2.723,10.476,10.476,0,0,0-.5,3.207q0,3.513,3.233,3.513a4.922,4.922,0,0,0,3.044-1.037h1.77l-.707,3.136A9.65,9.65,0,0,1,148.7,140.395Z" transform="translate(-141.312 -123.016)"/><path class="a" d="M156.449,140.127l3.775-16.505h2.525a3.4,3.4,0,0,1,.754.071.861.861,0,0,1,.473.33,1.369,1.369,0,0,1,.141.66,4.838,4.838,0,0,1-.166,1.156l-.8,3.443a6.7,6.7,0,0,1,4.414-1.769,2.583,2.583,0,0,1,2.761,2.381,5.526,5.526,0,0,1-.141,1.839l-1.936,8.394H165.3a.913.913,0,0,1-.873-.377,1.87,1.87,0,0,1,0-1.344l1.391-6.2a1.371,1.371,0,0,0-.047-1.037.939.939,0,0,0-.849-.33,4.818,4.818,0,0,0-2.29.73l-1.934,8.56Z" transform="translate(-136.061 -122.962)"/><path class="a" d="M171.832,140.3l2.855-12.425h2.383a1.569,1.569,0,0,1,1.321.447,1.4,1.4,0,0,1,.141.707,5.337,5.337,0,0,1-.164,1.227l-2.29,10.044Zm5.308-13.2a2.029,2.029,0,0,1-1.463-.519,1.611,1.611,0,0,1-.59-1.3,1.979,1.979,0,0,1,.673-1.545,2.374,2.374,0,0,1,1.639-.6,2.235,2.235,0,0,1,1.487.5,1.688,1.688,0,0,1,.59,1.367,1.891,1.891,0,0,1-.684,1.521A2.475,2.475,0,0,1,177.14,127.093Z" transform="translate(-130.724 -123.132)"/><path class="a" d="M188.014,139.314a6.532,6.532,0,0,1-4.247-1.285,4.643,4.643,0,0,1-1.581-3.831,7.367,7.367,0,0,1,2.218-5.541,7.689,7.689,0,0,1,5.57-2.146,6.7,6.7,0,0,1,3.845,1.013l-.613,2.641H191.7a2.179,2.179,0,0,0-1.747-.66,2.954,2.954,0,0,0-2.62,1.4,5.664,5.664,0,0,0-.92,3.172q0,2.358,2.147,2.357a3.522,3.522,0,0,0,2.171-.707h1.51l-.637,2.711A6.436,6.436,0,0,1,188.014,139.314Z" transform="translate(-127.132 -121.96)"/><path class="a" d="M205.719,139.125h-1.676a1.743,1.743,0,0,1-1.888-1.273,4.226,4.226,0,0,1-3.28,1.439,3.449,3.449,0,0,1-2.454-.861,3.12,3.12,0,0,1-.92-2.394,3.627,3.627,0,0,1,1.581-3.289,7.091,7.091,0,0,1,3.941-1.026,7.84,7.84,0,0,1,2.076.26l.071-.26a2.315,2.315,0,0,0-.071-1.673,1.664,1.664,0,0,0-1.486-.543,5.39,5.39,0,0,0-2.833.66h-1.321l.684-2.853a11.867,11.867,0,0,1,4.484-.8,5.693,5.693,0,0,1,4.13,1.249,3.266,3.266,0,0,1,.8,1.651,6.358,6.358,0,0,1-.143,2.381Zm-5.074-2.31a2.064,2.064,0,0,0,1.51-.637l.5-2.193a4.262,4.262,0,0,0-1.2-.166,2.047,2.047,0,0,0-1.428.461,1.736,1.736,0,0,0-.508,1.355Q199.512,136.815,200.645,136.815Z" transform="translate(-122.512 -121.96)"/></g><g transform="translate(1.006 60.621)"><path class="a" d="M132.754,168.139V190.41H259.46V168.139Zm32.947,5.649,1.183-2.429h3.2v.95l-2.6,2.175H165.7Zm-8.494.873h-1.249a3.969,3.969,0,0,0-2.763-.928,4.518,4.518,0,0,0-1.7.315,4.143,4.143,0,0,0-1.354.866,6.56,6.56,0,0,0-1.01,1.27,7.2,7.2,0,0,0-.713,1.545,10.86,10.86,0,0,0-.4,1.662,10.584,10.584,0,0,0-.132,1.65q0,3.841,3.458,3.841a5.37,5.37,0,0,0,3.149-1.016h1.337l-.6,2.55a8.146,8.146,0,0,1-4.066.95,7.3,7.3,0,0,1-5.055-1.639,6.023,6.023,0,0,1-1.828-4.73,11.312,11.312,0,0,1,.414-3.063,9.674,9.674,0,0,1,3.1-4.825,8.149,8.149,0,0,1,2.52-1.418,9.005,9.005,0,0,1,3.032-.508,7.767,7.767,0,0,1,4.4,1.126Zm11.941,12.529h-.861q-1.736,0-1.879-1.557a9.463,9.463,0,0,1-2.022,1.292,5.058,5.058,0,0,1-2.121.442,2.884,2.884,0,0,1-1.883-.59,2.432,2.432,0,0,1-.846-1.707,4.791,4.791,0,0,1,.144-1.7l1.878-8.048h2.2q.6,0,.773.3a1.021,1.021,0,0,1,.088.453,4.708,4.708,0,0,1-.11.718l-1.469,6.578a1.47,1.47,0,0,0,.057,1.06.8.8,0,0,0,.75.342,5.388,5.388,0,0,0,2.784-1.016l1.923-8.434h3.3Zm15.267-8.93h-1.2a2.266,2.266,0,0,0-1.878-.718,3.282,3.282,0,0,0-1.7.442,3.362,3.362,0,0,0-1.193,1.164,6.076,6.076,0,0,0-.675,1.568,6.487,6.487,0,0,0-.232,1.728q0,2.55,2.332,2.55a4.026,4.026,0,0,0,2.309-.695H183.4l-.52,2.241a6.143,6.143,0,0,1-3.26.805,5.772,5.772,0,0,1-3.928-1.242,4.578,4.578,0,0,1-1.42-3.638,7.732,7.732,0,0,1,.912-3.753,6.64,6.64,0,0,1,2.547-2.628,7.208,7.208,0,0,1,3.689-.95,5.606,5.606,0,0,1,3.491,1Zm12.152,8.93h-.862q-1.735,0-1.879-1.557a9.463,9.463,0,0,1-2.022,1.292,5.057,5.057,0,0,1-2.12.442,2.886,2.886,0,0,1-1.884-.59,2.443,2.443,0,0,1-.846-1.707,4.822,4.822,0,0,1,.144-1.7l1.878-8.048h2.2q.6,0,.773.3a1,1,0,0,1,.089.453,5.069,5.069,0,0,1-.11.718l-1.469,6.578a1.465,1.465,0,0,0,.055,1.06.8.8,0,0,0,.75.342,5.388,5.388,0,0,0,2.784-1.016l1.923-8.434h3.3Zm12.549-9.648H206.94l-1.381,6.028a1.415,1.415,0,0,0,.121,1.148,1.441,1.441,0,0,0,1.215.4h.563l-.42,1.965a5.265,5.265,0,0,1-1.833.287,3.73,3.73,0,0,1-2.094-.536,2.252,2.252,0,0,1-.955-1.716,5.073,5.073,0,0,1,.121-1.611l1.382-5.962h-1.282l.475-2.22h1.3l.729-3.168h3.3l-.73,3.168h2.132Zm12.217,2.682-1.612,6.966H218.66a1.817,1.817,0,0,1-1.028-.292,1.49,1.49,0,0,1-.607-.834A4.058,4.058,0,0,1,214,187.322a3.175,3.175,0,0,1-2.358-.861,3.142,3.142,0,0,1-.857-2.318,3.976,3.976,0,0,1,.436-1.9,3.281,3.281,0,0,1,1.188-1.28,5.86,5.86,0,0,1,1.635-.691,7.694,7.694,0,0,1,1.9-.226,6.705,6.705,0,0,1,2.055.265l.1-.431a2.43,2.43,0,0,0-.1-1.777,1.589,1.589,0,0,0-1.469-.6,6,6,0,0,0-2.916.729h-.951l.541-2.352a9.687,9.687,0,0,1,3.9-.75q3.944,0,4.375,2.794A6.11,6.11,0,0,1,221.333,180.224Z" transform="translate(-132.754 -168.139)"/><path class="a" d="M193.619,178.887a1.759,1.759,0,0,0-.629,1.468,1.415,1.415,0,0,0,.331,1,1.283,1.283,0,0,0,.983.353,2.066,2.066,0,0,0,.966-.221,4.157,4.157,0,0,0,.9-.663l.508-2.263a6.363,6.363,0,0,0-1.425-.176A2.564,2.564,0,0,0,193.619,178.887Z" transform="translate(-111.856 -164.583)"/></g><g class="b" transform="translate(1.054 21.656)"><path class="a" d="M233.213,147.506c-1.638-1.98-4.442-3.071-7.9-3.071a12.981,12.981,0,0,0-13.089,10.991l-.952,4.95c-.63,3.278-.176,5.875,1.347,7.719,2.03,2.453,5.435,2.967,7.936,2.967,5.117,0,11.623-2.749,13.111-10.5l.978-5.083C235.293,152.122,234.811,149.438,233.213,147.506Zm-12.567,13.555,1.15-5.984c.158-.822.7-2.732,2.358-2.732a1.033,1.033,0,0,1,.85.37,2.45,2.45,0,0,1,.29,1.991l-1.158,6.029c-.176.92-.706,2.462-2.268,2.462a1.316,1.316,0,0,1-1.057-.358A2.279,2.279,0,0,1,220.646,161.061Z" transform="translate(-105.655 -137.397)"/><path class="a" d="M216.753,149.008a6.009,6.009,0,0,0-4.889-2.065,9.5,9.5,0,0,0-5.763,1.985l.688-3.581c.478-2.493.6-4.01-.12-4.883a3.153,3.153,0,0,0-2.555-.808h-6.34l-6.29,32.733h5.867c1.09,0,2.123-.665,3.152-2.033,1.193,1.692,2.966,2.482,5.556,2.482,2.787,0,9.523-1.316,11.866-13.5C218.846,154.537,218.451,151.063,216.753,149.008Zm-9.134,10.945c-.905,4.7-2.327,5.339-3.6,5.339a2.512,2.512,0,0,1-1.03-.179L204.8,155.7a5.009,5.009,0,0,1,1.4-.263,1.543,1.543,0,0,1,1.286.434C207.823,156.281,208.123,157.325,207.619,159.953Z" transform="translate(-112.426 -139.055)"/><path class="a" d="M190.91,145.419l-3.222,16.773a5.563,5.563,0,0,1-1.3.182c-.769,0-1.219-.092-1.377-.282-.081-.1-.2-.376-.048-1.134l2.986-15.54H177.88l-3.339,17.373c-.546,2.842-.257,4.966.857,6.313a5.532,5.532,0,0,0,4.5,1.716,11.331,11.331,0,0,0,7.128-2.889,2.835,2.835,0,0,0,.6,1.876,2.328,2.328,0,0,0,1.812.609h6.736l4.8-25Z" transform="translate(-118.397 -137.056)"/><path class="a" d="M181.019,148.552a5.213,5.213,0,0,0-4.237-1.61,11.363,11.363,0,0,0-6.986,2.573l.8-4.169c.479-2.493.6-4.01-.12-4.883a3.15,3.15,0,0,0-2.554-.807h-6.34l-6.251,32.524-.039.207H165.4l3.184-16.569a6.787,6.787,0,0,1,1.375-.162c.737,0,1.176.079,1.305.236.055.067.17.31.02,1.09l-2.961,15.4h10.068l3.424-17.823C182.347,151.809,182.086,149.841,181.019,148.552Z" transform="translate(-124.982 -139.055)"/><path class="a" d="M159.861,152.186c.038-.269.069-.535.1-.8h4.08l3.918-5.1,1.245-6.479h-7.312l-1.393,7.251h1.781l-2.282,3.891c.273-3.483-.471-6.267-2.226-8.284-2.489-2.858-6.367-3.459-9.181-3.459-5.851,0-13.151,3.354-14.473,12.8l-1.129,8.075c-.572,4.093.116,7.292,2.045,9.508s5.082,3.379,9.128,3.379a13.191,13.191,0,0,0,7.435-1.856l2.951,2.136,5.273-6.169-2.648-1.666a17.156,17.156,0,0,0,1.57-5.2Zm-11.026,8.129c-.291,2.084-1.921,3.778-3.633,3.778a2.343,2.343,0,0,1-1.173-.319,1.908,1.908,0,0,1-1.059-1.335,3.952,3.952,0,0,1-.194-1.952l1.231-8.812a4.937,4.937,0,0,1,.823-2.093c.026-.04.053-.075.093-.128l.058-.074c.044-.059.092-.119.179-.222a2.527,2.527,0,0,1,.179-.193,3.3,3.3,0,0,1,2.3-1.068,2.234,2.234,0,0,1,1.728.789,3.527,3.527,0,0,1,.7,2.815Z" transform="translate(-132.789 -139.21)"/></g><g transform="translate(0.35 21.976)"><path class="a" d="M224.008,144.67a12.206,12.206,0,0,0-12.3,10.342l-.952,4.949c-.582,3.033-.186,5.409,1.179,7.059,1.829,2.213,4.989,2.678,7.318,2.678,5.043,0,10.93-2.587,12.326-9.847l.977-5.085c.6-3.114.174-5.575-1.265-7.314C229.8,145.657,227.219,144.67,224.008,144.67Zm.764,9.622-1.158,6.029c-.38,1.977-1.494,3.111-3.055,3.111a2.057,2.057,0,0,1-1.674-.649,2.9,2.9,0,0,1-.334-2.438l1.15-5.984c.407-2.117,1.583-3.381,3.145-3.381a1.839,1.839,0,0,1,1.468.66A3.228,3.228,0,0,1,224.772,154.292Z" transform="translate(-105.127 -137.636)"/><path class="a" d="M202.76,139.891h-5.677L191.1,171.024H196c.989,0,1.983-.812,3.039-2.482l.164-.26.14.273c1.025,2.019,2.68,2.919,5.365,2.919,5.471,0,9.509-4.686,11.078-12.856.875-4.551.537-7.8-1-9.666a5.248,5.248,0,0,0-4.271-1.775,9.223,9.223,0,0,0-6.6,2.963l-.4.4,1.135-5.908c.488-2.534.5-3.677.05-4.223C204.394,140.04,203.833,139.891,202.76,139.891Zm2.081,14.178a2.284,2.284,0,0,1,1.9.723c.675.816.773,2.325.307,4.745-.807,4.2-2.117,5.988-4.386,5.988a2.888,2.888,0,0,1-1.832-.529l-.086-.066,2-10.416.1-.032A6.635,6.635,0,0,1,204.841,154.069Z" transform="translate(-111.855 -139.294)"/><path class="a" d="M186.908,168.7a1.544,1.544,0,0,0,1.223.352h6.075l4.5-23.4h-8.437l-3.19,16.6-.1.032a6.49,6.49,0,0,1-1.9.323,2.543,2.543,0,0,1-1.993-.572,2.109,2.109,0,0,1-.218-1.794l2.8-14.589h-8.437l-3.214,16.723c-.5,2.6-.268,4.5.687,5.652a4.784,4.784,0,0,0,3.881,1.426c3.152,0,5.552-1.731,7.675-3.6l.325-.287-.035.431C186.434,167.472,186.543,168.3,186.908,168.7Z" transform="translate(-117.87 -137.295)"/><path class="a" d="M179.05,148.5a4.414,4.414,0,0,0-3.621-1.32c-2.676,0-5.233,1.148-7.814,3.507l-.389.356,1.231-6.409c.488-2.534.5-3.678.05-4.223-.3-.368-.865-.517-1.937-.517h-5.679l-5.983,31.133h8.478l3.157-16.428.108-.027a8.2,8.2,0,0,1,1.956-.275c.893,0,1.561.089,1.922.525a2.061,2.061,0,0,1,.19,1.751l-2.779,14.454h8.439l3.3-17.173C180.153,151.378,179.942,149.575,179.05,148.5Z" transform="translate(-124.411 -139.294)"/><path class="a" d="M159.827,139.891h-5.682l-1.086,5.65h2.208l-2.538,4.329h2.509l3.562-4.637Z" transform="translate(-125.167 -139.294)"/><path class="a" d="M155.84,142.633c-2.292-2.633-5.931-3.185-8.577-3.185-5.53,0-12.431,3.173-13.681,12.114l-1.129,8.074c-.537,3.855.086,6.84,1.857,8.872s4.716,3.106,8.523,3.106a12.423,12.423,0,0,0,7.365-1.957l.1-.066,2.791,2.02,4.192-4.9-2.488-1.565.077-.144a15.981,15.981,0,0,0,1.751-5.456l1.122-8.029C158.279,147.687,157.638,144.7,155.84,142.633Zm-6.3,8.418-1.231,8.813c-.345,2.462-2.33,4.466-4.426,4.466a3.028,3.028,0,0,1-1.514-.4,2.655,2.655,0,0,1-1.472-1.787,4.761,4.761,0,0,1-.233-2.333L141.892,151a5.656,5.656,0,0,1,.94-2.414c.039-.063.088-.125.135-.187l.055-.07c.055-.073.109-.141.166-.207a3.7,3.7,0,0,1,.264-.288,4.089,4.089,0,0,1,2.865-1.3,3.05,3.05,0,0,1,2.332,1.065A4.316,4.316,0,0,1,149.536,151.052Z" transform="translate(-132.266 -139.448)"/></g><g transform="translate(0 21.628)"><path d="M222.936,151.419c-1.991,0-2.622,2.166-2.8,3.1l-1.149,5.983a2.594,2.594,0,0,0,.259,2.151,1.733,1.733,0,0,0,1.4.521c1.886,0,2.508-1.771,2.711-2.827l1.158-6.029a2.876,2.876,0,0,0-.385-2.363,1.494,1.494,0,0,0-1.2-.535m-2.287,12.1a2.057,2.057,0,0,1-1.674-.649,2.9,2.9,0,0,1-.334-2.438l1.15-5.984c.407-2.117,1.583-3.381,3.145-3.381a1.839,1.839,0,0,1,1.468.66,3.228,3.228,0,0,1,.458,2.652l-1.158,6.029c-.38,1.977-1.494,3.111-3.055,3.111M224.1,144.76A12.206,12.206,0,0,0,211.8,155.1l-.952,4.949c-.582,3.033-.186,5.409,1.179,7.059,1.829,2.213,4.989,2.678,7.318,2.678,5.043,0,10.93-2.587,12.326-9.847l.977-5.085c.6-3.114.174-5.575-1.265-7.314-1.483-1.794-4.068-2.781-7.279-2.781m-4.759,25.376c-2.4,0-5.671-.486-7.587-2.8-1.434-1.733-1.856-4.206-1.253-7.347l.951-4.949A12.548,12.548,0,0,1,224.1,144.41c3.316,0,6,1.033,7.548,2.908,1.507,1.824,1.958,4.382,1.339,7.6l-.977,5.085c-1.437,7.477-7.723,10.13-12.669,10.13" transform="translate(-104.868 -137.378)"/><path d="M201.242,164.871a2.588,2.588,0,0,0,1.533.4c1.457,0,3.076-.678,4.042-5.7.438-2.28.362-3.738-.233-4.457a1.964,1.964,0,0,0-1.634-.6,6.2,6.2,0,0,0-1.787.364Zm1.533.745a2.888,2.888,0,0,1-1.832-.529l-.086-.066,2-10.416.1-.032a6.635,6.635,0,0,1,1.995-.413,2.284,2.284,0,0,1,1.9.723c.675.816.773,2.325.307,4.745-.807,4.2-2.117,5.988-4.386,5.988m-3.466,2.756.14.273c1.025,2.019,2.68,2.919,5.365,2.919,5.471,0,9.509-4.686,11.078-12.856.876-4.551.537-7.8-1-9.666a5.249,5.249,0,0,0-4.271-1.775,9.223,9.223,0,0,0-6.6,2.963l-.4.4,1.135-5.908c.488-2.534.5-3.677.05-4.223-.3-.368-.866-.517-1.938-.517h-5.677l-5.983,31.133h4.9c.989,0,1.983-.812,3.039-2.482Zm5.5,3.541c-2.676,0-4.444-.905-5.536-2.845-1.068,1.611-2.108,2.395-3.172,2.395h-5.32l6.116-31.832h5.967a2.794,2.794,0,0,1,2.208.645c.607.734.477,2.152.024,4.511l-.925,4.815a9.379,9.379,0,0,1,6.444-2.684,5.578,5.578,0,0,1,4.54,1.9c1.61,1.946,1.972,5.295,1.078,9.954-2.279,11.86-8.748,13.139-11.423,13.139" transform="translate(-111.615 -139.036)"/><path d="M177.323,145.744l-3.214,16.723c-.5,2.6-.268,4.5.687,5.652a4.784,4.784,0,0,0,3.88,1.426c3.152,0,5.552-1.731,7.675-3.6l.325-.287-.035.431c-.117,1.471-.008,2.3.357,2.7a1.546,1.546,0,0,0,1.224.352H194.3l4.5-23.4h-8.437l-3.19,16.6-.1.032a6.489,6.489,0,0,1-1.9.323,2.543,2.543,0,0,1-1.993-.572,2.109,2.109,0,0,1-.218-1.794l2.8-14.589Zm1.354,24.15a5.109,5.109,0,0,1-4.15-1.553c-1.025-1.238-1.281-3.237-.761-5.94l3.268-17.006h9.151l-2.884,15a1.834,1.834,0,0,0,.145,1.506c.257.313.773.446,1.723.446a6.047,6.047,0,0,0,1.692-.276l3.206-16.679h9.148l-4.629,24.1h-6.363a1.9,1.9,0,0,1-1.48-.465,3.454,3.454,0,0,1-.477-2.54c-2.1,1.8-4.479,3.409-7.589,3.409" transform="translate(-117.61 -137.036)"/><path d="M168.049,171.114h8.439l3.3-17.173c.475-2.473.263-4.275-.629-5.354a4.414,4.414,0,0,0-3.621-1.32c-2.676,0-5.233,1.148-7.814,3.507l-.389.356,1.231-6.409c.488-2.534.5-3.678.05-4.223-.3-.368-.865-.517-1.937-.517H161l-5.983,31.133H163.5l3.157-16.428.108-.027a8.2,8.2,0,0,1,1.956-.275c.893,0,1.561.089,1.922.525a2.061,2.061,0,0,1,.19,1.751Zm8.727.349h-9.148l2.857-14.869c.14-.731.1-1.2-.116-1.463-.234-.283-.713-.4-1.653-.4a7.66,7.66,0,0,0-1.762.238l-3.171,16.492H154.6l6.118-31.831h5.967a2.794,2.794,0,0,1,2.206.644c.609.734.478,2.152.026,4.511l-1.036,5.385a11.556,11.556,0,0,1,7.663-3.254,4.731,4.731,0,0,1,3.89,1.447c.962,1.164,1.2,3.062.7,5.642Z" transform="translate(-124.17 -139.035)"/><path d="M152.887,149.96H155.4l3.563-4.638,1.026-5.342H154.3l-1.086,5.65h2.209Zm2.68.349h-3.291l2.538-4.329h-2.022l1.22-6.348h6.394l-1.122,5.838Z" transform="translate(-124.975 -139.035)"/><path d="M146.407,146.976a3.746,3.746,0,0,0-2.621,1.2c-.081.077-.151.16-.222.242s-.123.151-.172.216l-.057.073a1.9,1.9,0,0,0-.12.164,5.337,5.337,0,0,0-.886,2.271l-1.232,8.813a4.423,4.423,0,0,0,.218,2.173,2.347,2.347,0,0,0,1.3,1.587,2.71,2.71,0,0,0,1.356.358c1.927,0,3.758-1.87,4.08-4.167l1.231-8.812a3.967,3.967,0,0,0-.805-3.173,2.705,2.705,0,0,0-2.068-.944m-2.438,17.445a3.028,3.028,0,0,1-1.514-.4,2.654,2.654,0,0,1-1.472-1.787,4.761,4.761,0,0,1-.233-2.333l1.232-8.812a5.656,5.656,0,0,1,.94-2.414c.039-.063.088-.125.135-.187l.055-.07c.055-.073.109-.141.166-.207a3.7,3.7,0,0,1,.264-.288,4.089,4.089,0,0,1,2.865-1.3,3.05,3.05,0,0,1,2.332,1.065,4.316,4.316,0,0,1,.888,3.451l-1.231,8.813-.174-.024.174.024c-.345,2.462-2.33,4.466-4.426,4.466m3.383-24.883c-5.53,0-12.431,3.173-13.681,12.114l-1.129,8.074c-.537,3.855.086,6.84,1.857,8.872s4.716,3.106,8.523,3.106a12.423,12.423,0,0,0,7.365-1.957l.1-.066,2.791,2.02,4.192-4.9-2.488-1.565.077-.144a15.981,15.981,0,0,0,1.751-5.456l1.122-8.029c.535-3.827-.106-6.814-1.9-8.88-2.292-2.633-5.931-3.186-8.577-3.186m5.885,32.636-2.858-2.07a12.756,12.756,0,0,1-7.455,1.949c-3.913,0-6.951-1.115-8.787-3.225s-2.492-5.191-1.94-9.151l1.129-8.073c1.281-9.163,8.356-12.415,14.027-12.415,2.719,0,6.461.572,8.84,3.3,1.868,2.146,2.538,5.227,1.988,9.159l-1.122,8.029a16.6,16.6,0,0,1-1.712,5.429l2.555,1.608Z" transform="translate(-132.007 -139.189)"/></g></g></g></svg>