<svg xmlns="http://www.w3.org/2000/svg" width="120.329" height="160.629" viewBox="0 0 120.329 160.629"><defs><style>.a{fill:#fff;}</style></defs><g transform="translate(-397.08 -601.782)"><g transform="translate(497.862 637.698)"><path class="a" d="M642.476,718.508l-.027-.168c5-2.961,5.182-8.256,4.293-12.429q-8.582,1.378-10.047-7.737-1.507-9.383,7.929-10.9,9.275-1.49,11.064,9.651C657.543,708.476,651.769,716.5,642.476,718.508Z" transform="translate(-636.487 -687.1)"/></g><path class="a" d="M418.67,805.233a17.712,17.712,0,0,1,8.864-2.216A6.461,6.461,0,0,0,426,800.233c-.984-.766-2.671,0-2.671,0a2.971,2.971,0,0,0,.516-4.38c-3.569-3.829-11.312-3.291-11.312-3.291-12.9-2.216-10.828-10.512-3.125-11.251,8.3-.8,7.557,4.148,6.534,4.319-.171-1.364-2.841-2.614-4.091-.966s1.648,5.512,5.228,3.353c2.27-1.369,2.364-3.9,1.189-6.054-1.118-2.053-3.576-3.776-8.927-4.073-5.9-.328-9.82-1.521-8.967-4.192,1.635-5.123,13.126-1.7,13.126-1.7A7.522,7.522,0,0,1,412.59,768s-9.717-2.94-9.717-5.384c0-3.75,9.944,2.784,12.3,0s-3.155-7.9-3.155-7.9c4.546,2.216,12.1,2.9,12.1,2.9a37.077,37.077,0,0,1-.4-5.057c-2.444.113-15.91.511-17.331-7.9s7.273-12.216,11.478-9.546c4.309,2.737,3.864,7.046,2.5,8.239.349-1.872-2.216-3.637-3.807-2.614-2.053,1.319-1.761,4.2.625,5.4,3.417,1.708,10.682-4.489,4.2-11.876a10.445,10.445,0,0,0-18.3,7.728c.682,10.456,9.631,13.808,7.273,16.194s-10.341-4.375-11.108,1.108,6.9,8.466,6.9,8.466c-4.432-1.08-10.541,1.619-8.779,6.023s7.131,4.915,7.131,4.915-5.625,2.045-4.546,7.387c.994,4.917,5.455,6.25,10.341,7.842,0,0-5.24,1.972-3.068,5.682,2.727,4.659,8.977,4.261,8.977,4.261s-3.352,2.216-1.989,4.148c3.5,4.96,12.614,1.762,12.614,1.762C421.057,811.143,414.181,807.734,418.67,805.233Zm-5.746-4.573c-3.1-1.713-.712-5.219,3.648-4.978,4.681.259,5.532,3.128,3.878,4.448A7.44,7.44,0,0,1,412.924,800.661Z" transform="translate(0 -74.625)"/><ellipse class="a" cx="2.786" cy="3.605" rx="2.786" ry="3.605" transform="translate(415.661 698.081) rotate(-79.153)"/><path class="a" d="M451.384,805.451c-1.094-2.727-5.483-3.111-6.889-2,0,0,3.921-2.088.639-6.52,0,0,5.369,2.9,6.25,8.523" transform="translate(-27.455 -112.997)"/><path class="a" d="M478.706,881.054s-3.8,3.839-2.088,10.683c1.463,5.852,7.6,6.875,7.316,12.842,2.671-7.046-5.455-9.66-4.432-16.046,2.955,7.125,14.376,6.671,13.978,14.91,2.472-12.728-12.046-11.591-14.774-22.388Z" transform="translate(-45.799 -161.709)"/><path class="a" d="M458.966,849.294a6.772,6.772,0,0,0-1.621-3.316c-.87-.974-.643-.607-.3.4a10.024,10.024,0,0,1,.447,1.73,3.588,3.588,0,0,1-.047,1.866c-.236.621-1.514,1.9-3.28.294-1.2-1.1-1.5-2.978-1.544-4.549a47.8,47.8,0,0,1,.382-5.423,23.2,23.2,0,0,0-.038-4.305,17.668,17.668,0,0,0-.843-4.12c-.074-.206-.226-.4-.273.015a3.379,3.379,0,0,1-2.49,2.45,5.971,5.971,0,0,1-1.872.249,8.717,8.717,0,0,1-1.586-.225,3.828,3.828,0,0,0-.491-.151c-.319-.071-.234.01-.134.05a5.908,5.908,0,0,1,3.228,4.864c.32,2.416-.065,5.214.491,7.611a10.942,10.942,0,0,0,3.233,5.687,4.825,4.825,0,0,0,3.056,1.283,3.483,3.483,0,0,0,2.725-1.258A3.9,3.9,0,0,0,458.966,849.294Z" transform="translate(-27.858 -133.099)"/><path class="a" d="M402.68,765.782a13.154,13.154,0,0,0,3.75,8.41s-3.523-1.875-5.341.568A16.79,16.79,0,0,1,402.68,765.782Z" transform="translate(-2.274 -94.962)"/><path class="a" d="M496.577,794.737c18.728-8.127,31.777-26.345,31.777-47.516,0-28.738-24.042-52.033-53.7-52.033A54.49,54.49,0,0,0,439.4,707.976c5.995.093,10.842,4.434,11.016,9.835,5.914-9.034,14.415-14.7,23.857-14.7,17.865,0,32.346,20.264,32.346,45.259,0,17.47-7.074,32.626-17.434,40.17-7.126-3.834-12.341-.225-12.341-.225,1.25,7.728-4.377,10.9-4.377,10.9h0c12.56.043,35.175,33.425,57.79,7.287C514.521,816.185,504.964,803.575,496.577,794.737Z" transform="translate(-24.505 -54.085)"/><g transform="translate(426.859 601.782)"><path class="a" d="M483.534,686.3s15.8-4.261,32.024,0a8.432,8.432,0,0,0,.6-2.33s-17.755-4.319-33.186,0A4.129,4.129,0,0,0,483.534,686.3Z" transform="translate(-476.59 -648.261)"/><path class="a" d="M513,622.075c-1-1.4-3.719-2.444-6.473-1.349a8.61,8.61,0,0,0-1.426-3.791c-1.875-2.557-8.3-4.2-12.955,1.648-4.66-5.853-11.08-4.205-12.956-1.648a8.61,8.61,0,0,0-1.426,3.791c-2.753-1.1-5.47-.05-6.473,1.349-1.318,1.839-3.339,8.189,5.855,14.727-1.775.262-3.545.587-5.291.987a3.507,3.507,0,0,0,.682,2.33s19.319-4.262,39.15,0a7.318,7.318,0,0,0,.739-2.33s-2.065-.411-5.472-.852C516.37,630.352,514.33,623.927,513,622.075Zm-39.252,2.336a3.367,3.367,0,0,1,3.948-1.446c.263,3.454,2.269,7.885,8.474,12.421l-.025.022C474.416,636.852,472.433,626.705,473.751,624.411ZM490.1,635.872l-.443,0c-6.637-5.942-8.6-12.669-7.223-15.928,1.107-2.623,5.592-2.912,8.088.255Zm4.481.06-.378-.011-.424-15.72c2.131-2.655,6.982-2.878,8.088-.255C503.245,623.216,501.268,629.976,494.579,635.932Zm3.664-.513c-.024-.024-.048-.055-.066-.072,6.162-4.522,8.16-8.937,8.422-12.381a3.367,3.367,0,0,1,3.948,1.446C511.86,626.7,509.891,636.8,498.243,635.419Z" transform="translate(-469.162 -609.207)"/><path class="a" d="M521.3,606.669a2.4,2.4,0,0,1-2.552,2.134,2.789,2.789,0,0,1-2.676-2.3c0-2.194,3.335-2.194,2.676-4.716C520.021,602.258,521.471,604.883,521.3,606.669Z" transform="translate(-495.757 -601.782)"/><circle class="a" cx="1.287" cy="1.287" r="1.287" transform="translate(6.254 31.704)"/><circle class="a" cx="1.287" cy="1.287" r="1.287" transform="translate(13.977 30.508)"/><circle class="a" cx="1.287" cy="1.287" r="1.287" transform="translate(21.699 30.03)"/><circle class="a" cx="1.287" cy="1.287" r="1.287" transform="translate(29.422 30.508)"/><circle class="a" cx="1.287" cy="1.287" r="1.287" transform="translate(37.144 31.704)"/><g transform="translate(3.348 14.744)"><path class="a" d="M476.878,641.8a2.836,2.836,0,0,1,1.859-3.578,4.987,4.987,0,0,1,2.422-.237,7.353,7.353,0,0,1,1.365.351,2.215,2.215,0,0,0,1.354.247.361.361,0,0,0,.212-.522c-.244-.53-.847-.7-1.364-.869a8.058,8.058,0,0,0-1.631-.348,5.492,5.492,0,0,0-2.988.491A3.873,3.873,0,0,0,476,642.04a.471.471,0,0,0,.563.32.461.461,0,0,0,.32-.563Z" transform="translate(-475.773 -636.806)"/></g><g transform="translate(11.416 10.774)"><path class="a" d="M495.9,632.5a4.571,4.571,0,0,1,3.513-3.775,5.885,5.885,0,0,1,5.337,1.485c.358.328.649.712.99,1.054s1.052.437,1.037-.221a2.222,2.222,0,0,0-.8-1.329,8.443,8.443,0,0,0-1.14-.984,6.868,6.868,0,0,0-5.924-1.09,5.6,5.6,0,0,0-3.971,4.861.485.485,0,0,0,.481.481.492.492,0,0,0,.481-.481Z" transform="translate(-494.939 -627.376)"/></g><g transform="translate(22.775 10.748)"><path class="a" d="M522.891,630.8a5.45,5.45,0,0,1,4.491-2.323,5.043,5.043,0,0,1,4.349,2.674,5.315,5.315,0,0,1,.531,1.377c.059.252.1.5.171.751a4.875,4.875,0,0,0,.312.77.287.287,0,0,0,.492,0,2.2,2.2,0,0,0,.249-1.635,6.446,6.446,0,0,0-.547-1.569,6.644,6.644,0,0,0-2.155-2.492,6.284,6.284,0,0,0-8.78,1.929c-.349.568.524,1.065.887.519Z" transform="translate(-521.923 -627.314)"/></g><g transform="translate(35.118 14.793)"><path class="a" d="M551.9,638.374a4.339,4.339,0,0,1,4.172.206,4.206,4.206,0,0,1,1.344,1.313,5.169,5.169,0,0,1,.442.829,1.437,1.437,0,0,0,.7.887.386.386,0,0,0,.379-.1,1.234,1.234,0,0,0,.063-1.282,4.875,4.875,0,0,0-.578-1.072,5.557,5.557,0,0,0-1.829-1.635,5.444,5.444,0,0,0-5.132.1c-.5.273-.059,1.011.443.758Z" transform="translate(-551.242 -636.923)"/></g><g transform="translate(0 20.896)"><path class="a" d="M471.541,651.58a2.64,2.64,0,0,0-2.4.319,3.038,3.038,0,0,0-1.306,2.315,4.759,4.759,0,0,0,2.824,4.388,10.173,10.173,0,0,0,1.605.664c.279.091.56.173.843.25a2.767,2.767,0,0,0,.934.181.47.47,0,0,0,.4-.232.7.7,0,0,0,.064-.236.469.469,0,0,0-.232-.4,2.775,2.775,0,0,0-.844-.288c-.283-.078-.564-.161-.842-.252a8.612,8.612,0,0,1-1.447-.607,4.552,4.552,0,0,1-1.938-1.859,2.575,2.575,0,0,1,.053-2.562,1.844,1.844,0,0,1,2.03-.765c.59.187.8-.693.251-.91Z" transform="translate(-467.82 -651.421)"/></g><g transform="translate(39.935 21.419)"><path class="a" d="M564.462,653.646c.877-.172,2.2-.371,2.774.535.479.76,0,1.864-.4,2.557a5.54,5.54,0,0,1-1.753,1.858,6.836,6.836,0,0,1-1.137.592,4.143,4.143,0,0,0-1.193.645.235.235,0,0,0,.047.367,1.729,1.729,0,0,0,1.225.085,5.45,5.45,0,0,0,1.2-.507,6.679,6.679,0,0,0,1.971-1.706c1.017-1.308,1.986-3.7.324-4.917a3.8,3.8,0,0,0-3.261-.247c-.482.123-.276.832.2.738Z" transform="translate(-562.686 -652.663)"/></g></g><path class="a" d="M499.552,925.554a7.252,7.252,0,0,0-2.488-6.7s5.955,2.216,7.091,6.989A9.406,9.406,0,0,1,499.552,925.554Z" transform="translate(-57.894 -183.593)"/><path class="a" d="M469.421,916.149c.625,3.154,3.807,3.864,4.6,6.307,0,0-6.7-.476-8.978-2.727C465.046,919.729,469.08,919.729,469.421,916.149Z" transform="translate(-39.355 -182.03)"/></g></svg>