<svg xmlns="http://www.w3.org/2000/svg" width="1110" height="2336"><defs><linearGradient id="d" x1=".527" y1=".867" x2=".463" y2=".18" gradientUnits="objectBoundingBox"><stop offset=".206" stop-color="#b32d12"/><stop offset=".474" stop-color="#d04909"/><stop offset=".791" stop-color="#f06700"/></linearGradient><linearGradient id="e" x1=".5" y1="1.007" x2=".5" y2=".007" gradientUnits="objectBoundingBox"><stop offset=".181" stop-color="#fff" stop-opacity="0"/><stop offset=".226" stop-color="#fff" stop-opacity=".11"/><stop offset=".322" stop-color="#fff" stop-opacity=".388"/><stop offset=".461" stop-color="#fff" stop-opacity=".831"/><stop offset=".512" stop-color="#fff"/></linearGradient><linearGradient id="f" x1="-.012" y1=".957" x2=".709" y2="-.187" gradientUnits="objectBoundingBox"><stop offset=".105" stop-color="#f0822f"/><stop offset=".8" stop-color="#f0c62f"/></linearGradient><clipPath id="a"><path class="a" d="M0 0h1110v2336H0z"/></clipPath><clipPath id="c"><path class="a" d="M0 0h1156.156v908.883H0z"/></clipPath><clipPath id="g"><path class="a" d="M1011.617-59.541H-4.081v1309.322h-9.605v1125.5h545.314c2.873-10.888 13.289-17.73 23.942-15.411l2.825-14.418c-11.118-2.42-18.275-13.893-15.978-25.613s13.178-19.266 24.295-16.845l2.833-14.462c-11.117-2.42-18.282-13.85-15.986-25.57s13.178-19.265 24.295-16.845l2.92-14.9c-11.117-2.42-18.282-13.85-15.986-25.569s13.178-19.266 24.295-16.846l2.833-14.461c-11.117-2.421-18.274-13.894-15.978-25.615s13.17-19.221 24.287-16.8l2.833-14.462c-11.117-2.42-18.274-13.893-15.978-25.614s13.179-19.265 24.3-16.845l2.824-14.418c-11.117-2.421-18.274-13.893-15.978-25.614s13.179-19.265 24.3-16.844l2.833-14.463c-11.117-2.421-18.283-13.85-15.987-25.57s13.179-19.266 24.3-16.844l2.833-14.462c-11.117-2.422-18.274-13.894-15.978-25.615s13.17-19.221 24.287-16.8l2.833-14.462c-11.117-2.421-18.274-13.893-15.978-25.613s13.178-19.266 24.3-16.845l2.824-14.418c-11.117-2.421-18.274-13.894-15.978-25.614s13.179-19.266 24.3-16.844l2.833-14.464c-11.117-2.421-18.283-13.849-15.987-25.569s13.179-19.266 24.3-16.845l2.92-14.9c-11.117-2.421-18.283-13.85-15.987-25.57s13.178-19.266 24.3-16.845l2.833-14.463c-11.117-2.421-18.274-13.893-15.978-25.613s13.169-19.221 24.287-16.8l2.833-14.463c-11.117-2.421-18.274-13.893-15.978-25.615s13.178-19.265 24.295-16.844l2.825-14.418c-11.117-2.421-18.274-13.894-15.978-25.615s13.178-19.265 24.3-16.844l2.834-14.464c-11.118-2.42-18.283-13.849-15.987-25.569s13.178-19.266 24.3-16.845l2.833-14.462c-11.117-2.421-18.274-13.893-15.978-25.614s13.169-19.221 24.287-16.8l2.833-14.463c-11.117-2.421-18.274-13.893-15.978-25.613a21.279 21.279 0 0114.07-16.324c.107-.035.215-.067.323-.1q.742-.229 1.5-.4c.122-.027.243-.058.366-.082a19.292 19.292 0 013.685-.384c.177 0 .355 0 .532.007q.69.013 1.384.076c.185.017.369.031.554.053a20.33 20.33 0 011.855.3h.022l.54-2.757 2.285-11.662.008-.043c-11.109-2.419-18.263-13.879-15.981-25.592 2.3-11.707 13.18-19.241 24.29-16.823l2.834-14.463a19.13 19.13 0 01-1.816-.5 19.958 19.958 0 01-2.133-.808c-.038-.017-.074-.038-.112-.055a19.553 19.553 0 01-1.53-.791 21.308 21.308 0 01-1.869-1.19c-.07-.051-.136-.107-.205-.158-.42-.311-.826-.641-1.221-.984-.116-.1-.234-.2-.348-.3a21.901 21.901 0 01-1.23-1.208c-.1-.1-.189-.214-.284-.32q-.462-.514-.889-1.058c-.114-.145-.231-.289-.341-.437q-.492-.656-.933-1.349c-.109-.173-.211-.35-.316-.526q-.3-.509-.581-1.036c-.1-.2-.211-.393-.309-.594-.23-.47-.442-.95-.64-1.438-.092-.229-.175-.462-.261-.695a22.645 22.645 0 01-.962-12.165c2.3-11.721 13.178-19.266 24.295-16.845l2.833-14.463c-11.117-2.421-18.282-13.85-15.986-25.57s13.178-19.265 24.3-16.844l2.833-14.462c-11.117-2.422-18.274-13.894-15.978-25.615s13.17-19.221 24.287-16.8l2.833-14.462c-11.117-2.421-18.273-13.893-15.978-25.614s13.179-19.266 24.3-16.845l2.825-14.418c-11.118-2.421-18.275-13.893-15.978-25.615s13.178-19.265 24.3-16.844l2.833-14.462c-11.117-2.422-18.282-13.85-15.986-25.57s13.178-19.266 24.295-16.845l2.92-14.9c-11.117-2.421-18.283-13.85-15.987-25.57s13.179-19.266 24.3-16.845l2.833-14.463c-11.117-2.419-18.274-13.893-15.978-25.613s13.17-19.221 24.287-16.8l2.833-14.462c-11.117-2.421-18.274-13.893-15.978-25.613s13.178-19.266 24.3-16.845l2.824-14.418c-11.117-2.421-18.274-13.893-15.978-25.615s13.178-19.265 24.3-16.844l2.833-14.462c-11.117-2.422-18.283-13.85-15.987-25.57s13.179-19.266 24.3-16.845l2.833-14.462c-11.117-2.421-18.274-13.893-15.978-25.613s13.17-19.221 24.287-16.8l2.833-14.463c-11.117-2.421-18.274-13.894-15.978-25.613s13.178-19.267 24.3-16.845l2.824-14.419c-11.117-2.42-18.274-13.893-15.978-25.613s13.178-19.266 24.3-16.845l2.833-14.462c-11.117-2.421-18.283-13.849-15.987-25.569s13.178-19.266 24.3-16.845l2.919-14.905c-11.117-2.421-18.282-13.849-15.986-25.569s13.178-19.266 24.3-16.845l2.832-14.462c-11.117-2.421-18.273-13.893-15.977-25.613s13.169-19.221 24.287-16.8l2.833-14.462c-11.117-2.421-18.274-13.894-15.978-25.615s13.178-19.265 24.295-16.844l2.825-14.419c-11.117-2.421-18.274-13.893-15.978-25.613s13.178-19.266 24.295-16.845l2.834-14.462c-11.118-2.421-18.283-13.849-15.987-25.569s13.178-19.266 24.295-16.845l2.834-14.462c-11.118-2.421-18.274-13.893-15.978-25.613s13.169-19.221 24.286-16.8l2.834-14.461c-11.118-2.421-18.274-13.894-15.978-25.615s13.178-19.266 24.295-16.845l2.825-14.418c-11.117-2.421-18.274-13.893-15.978-25.613s13.178-19.266 24.295-16.845l2.833-14.462a20.914 20.914 0 01-15.263-13.926z" transform="translate(13.686 59.541)"/></clipPath><radialGradient id="b" cx=".497" cy=".241" r=".413" gradientTransform="matrix(2.081 0 0 1.136 -.536 -.009)" gradientUnits="objectBoundingBox"><stop offset="0" stop-color="#80e6ff"/><stop offset=".318" stop-color="#53b5ea"/><stop offset=".616" stop-color="#318ed9"/><stop offset=".853" stop-color="#1b76cf"/><stop offset="1" stop-color="#146ecc"/></radialGradient><radialGradient id="h" cx=".517" cy=".5" r=".491" gradientUnits="objectBoundingBox"><stop offset="0" stop-color="#fff" stop-opacity="0"/><stop offset=".238" stop-color="#fff" stop-opacity=".224"/><stop offset=".784" stop-color="#fff" stop-opacity=".773"/><stop offset="1" stop-color="#fff"/></radialGradient><style>.a{fill:none}</style></defs><g clip-path="url(#a)"><path fill="url(#b)" d="M0 0h1110v2435.17H0z"/><g clip-path="url(#c)" transform="translate(-46.156 1443.259)"><path d="M7.043-599.18L-645.896 419.498l909.671 627.078-6.951 11.209 770.024 530.815 441.641-677.987-7.6-7.975a17.35 17.35 0 01-25.447.072 19.712 19.712 0 01-.068-26.829l-8.691-9.115a17.32 17.32 0 01-25.421.1 19.711 19.711 0 01-.068-26.829l-8.956-9.393a17.322 17.322 0 01-25.422.1 19.714 19.714 0 01-.068-26.83l-8.69-9.114a17.351 17.351 0 01-25.448.072 19.677 19.677 0 01-.041-26.8l-8.691-9.114a17.351 17.351 0 01-25.448.072 19.712 19.712 0 01-.068-26.829l-8.664-9.087a17.351 17.351 0 01-25.448.071 19.712 19.712 0 01-.068-26.829l-8.691-9.114a17.321 17.321 0 01-25.421.1 19.71 19.71 0 01-.067-26.829l-8.692-9.115a17.351 17.351 0 01-25.448.071 19.677 19.677 0 01-.041-26.8l-8.691-9.114a17.351 17.351 0 01-25.448.072 19.713 19.713 0 01-.067-26.829l-8.665-9.087a17.351 17.351 0 01-25.448.072 19.713 19.713 0 01-.067-26.829l-8.691-9.115a17.321 17.321 0 01-25.422.1 19.713 19.713 0 01-.067-26.829l-8.957-9.393a17.321 17.321 0 01-25.421.1 19.712 19.712 0 01-.068-26.83l-8.691-9.114a17.349 17.349 0 01-25.447.072 19.676 19.676 0 01-.041-26.8l-8.691-9.114a17.353 17.353 0 01-25.449.071 19.711 19.711 0 01-.067-26.828l-8.664-9.086a17.352 17.352 0 01-25.448.071 19.712 19.712 0 01-.068-26.829l-8.691-9.114a17.321 17.321 0 01-25.421.1 19.712 19.712 0 01-.068-26.829l-8.691-9.115a17.351 17.351 0 01-25.448.072 19.678 19.678 0 01-.041-26.8l-8.691-9.114a17.351 17.351 0 01-25.448.072 19.688 19.688 0 01-4.6-18.685 19.88 19.88 0 01.53-1.65c.04-.105.076-.213.117-.318a19.236 19.236 0 011.5-3.032c.083-.136.172-.27.258-.4q.34-.527.718-1.034c.1-.134.2-.27.3-.4.349-.444.713-.879 1.1-1.3l.007-.007-.916-.96-7.749-8.126-.026-.027a17.352 17.352 0 01-25.434.084 19.711 19.711 0 01-.055-26.814l-8.691-9.115c-.391.413-.8.8-1.215 1.164-.1.087-.2.174-.3.259a18.02 18.02 0 01-1.284 1 1.15 1.15 0 01-.1.062c-.417.289-.845.552-1.279.8-.108.062-.216.124-.325.183-.458.25-.923.482-1.4.688-.069.03-.139.054-.208.082-.418.176-.841.331-1.268.472-.126.041-.252.084-.378.122-.472.144-.949.27-1.428.372-.12.025-.24.043-.36.065a16.93 16.93 0 01-1.16.18c-.156.019-.311.04-.467.054q-.69.065-1.384.074c-.173 0-.345-.005-.517-.008a15.968 15.968 0 01-1-.048c-.186-.013-.374-.024-.56-.045q-.655-.071-1.3-.194c-.2-.039-.406-.086-.608-.132a17.632 17.632 0 01-8.913-5.083 19.71 19.71 0 01-.067-26.829l-8.692-9.115a17.32 17.32 0 01-25.421.1 19.711 19.711 0 01-.067-26.829l-8.692-9.114a17.351 17.351 0 01-25.448.072 19.676 19.676 0 01-.04-26.8l-8.692-9.114a17.35 17.35 0 01-25.447.071 19.711 19.711 0 01-.068-26.829l-8.665-9.087a17.349 17.349 0 01-25.447.072 19.712 19.712 0 01-.068-26.829l-8.691-9.114a17.321 17.321 0 01-25.422.1 19.712 19.712 0 01-.067-26.829L605.4 5.517a17.321 17.321 0 01-25.422.1 19.713 19.713 0 01-.068-26.829l-8.691-9.114a17.352 17.352 0 01-25.448.071 19.676 19.676 0 01-.04-26.8l-8.691-9.115a17.352 17.352 0 01-25.449.072 19.713 19.713 0 01-.067-26.829l-8.664-9.087a17.352 17.352 0 01-25.448.072 19.711 19.711 0 01-.068-26.829l-8.691-9.115a17.32 17.32 0 01-25.421.1 19.712 19.712 0 01-.068-26.829l-8.691-9.114a17.352 17.352 0 01-25.448.072 19.678 19.678 0 01-.041-26.8l-8.691-9.114a17.351 17.351 0 01-25.448.071 19.713 19.713 0 01-.067-26.829l-8.665-9.087a17.351 17.351 0 01-25.448.072 19.713 19.713 0 01-.067-26.829l-8.691-9.114a17.322 17.322 0 01-25.422.1 19.712 19.712 0 01-.067-26.829l-8.957-9.394a17.321 17.321 0 01-25.421.1 19.711 19.711 0 01-.068-26.829l-8.691-9.114a17.352 17.352 0 01-25.448.071 19.676 19.676 0 01-.04-26.8l-8.692-9.113a17.352 17.352 0 01-25.448.071 19.712 19.712 0 01-.067-26.829l-8.665-9.087a17.351 17.351 0 01-25.448.071 19.712 19.712 0 01-.067-26.829l-8.691-9.114a17.32 17.32 0 01-25.421.1 19.712 19.712 0 01-.068-26.829l-8.691-9.114a17.352 17.352 0 01-25.448.071 19.676 19.676 0 01-.041-26.8l-8.691-9.114a17.352 17.352 0 01-25.448.071 19.712 19.712 0 01-.067-26.829l-8.665-9.087a17.351 17.351 0 01-25.448.072 19.713 19.713 0 01-.067-26.829l-8.691-9.115a17.357 17.357 0 01-16.926 5.035z" fill="#fff"/><path d="M140.322 809.26l-652.939 1018.679 909.672 627.077-4.6 7.418 781.961 539.04 427.657-655.44a19.72 19.72 0 01.759-25.87l-8.664-9.085a17.351 17.351 0 01-25.448.071 19.713 19.713 0 01-.067-26.829l-8.691-9.114a17.322 17.322 0 01-25.422.1 19.713 19.713 0 01-.067-26.829l-8.957-9.394a17.32 17.32 0 01-25.421.1 19.712 19.712 0 01-.068-26.829l-8.691-9.114a17.351 17.351 0 01-25.448.072 19.678 19.678 0 01-.041-26.8l-8.691-9.114a17.351 17.351 0 01-25.448.071 19.711 19.711 0 01-.067-26.829l-8.665-9.087a17.351 17.351 0 01-25.448.072 19.712 19.712 0 01-.067-26.829l-8.691-9.114a17.322 17.322 0 01-25.422.1 19.712 19.712 0 01-.067-26.829l-8.691-9.115a17.351 17.351 0 01-25.448.072 19.676 19.676 0 01-.041-26.8l-8.691-9.114a17.351 17.351 0 01-25.448.072 19.713 19.713 0 01-.068-26.83l-8.664-9.085a17.352 17.352 0 01-25.448.071 19.712 19.712 0 01-.067-26.829l-8.692-9.114a17.321 17.321 0 01-25.421.1 19.71 19.71 0 01-.067-26.829l-8.957-9.394a17.321 17.321 0 01-25.422.1 19.712 19.712 0 01-.067-26.829l-8.691-9.114a17.352 17.352 0 01-25.448.071 19.676 19.676 0 01-.041-26.8l-8.691-9.114a17.351 17.351 0 01-25.448.071 19.712 19.712 0 01-.067-26.829l-8.665-9.087a17.351 17.351 0 01-25.448.072 19.713 19.713 0 01-.067-26.829l-8.691-9.115a17.321 17.321 0 01-25.422.1 19.711 19.711 0 01-.067-26.828l-8.691-9.115a17.351 17.351 0 01-25.448.072 19.676 19.676 0 01-.041-26.8l-8.691-9.114a17.352 17.352 0 01-25.448.072 19.686 19.686 0 01-4.6-18.684c.027-.1.057-.2.086-.3q.2-.683.444-1.352c.04-.108.076-.215.118-.322a19.17 19.17 0 011.5-3.03c.084-.137.173-.272.261-.407q.339-.527.715-1.032c.1-.135.2-.271.3-.4.346-.441.708-.873 1.1-1.287l.013-.016-1.656-1.736-7.008-7.349-.027-.028a17.35 17.35 0 01-25.434.084 19.711 19.711 0 01-.054-26.814l-8.692-9.114a17.924 17.924 0 01-1.515 1.423c-.419.353-.845.692-1.285 1-.03.021-.062.039-.092.06-.418.29-.847.554-1.282.8-.108.062-.215.124-.324.183-.458.25-.923.482-1.4.687-.069.03-.14.055-.209.083-.417.175-.841.331-1.268.471-.126.042-.251.084-.378.123a17.41 17.41 0 01-1.428.371c-.119.025-.239.043-.359.066a16.27 16.27 0 01-1.161.179c-.155.019-.311.04-.467.055q-.69.065-1.384.074c-.172 0-.344-.005-.517-.008a16.765 16.765 0 01-1-.047c-.187-.014-.374-.025-.561-.045a14.566 14.566 0 01-1.3-.2c-.2-.038-.405-.085-.607-.131a17.634 17.634 0 01-8.914-5.084 19.712 19.712 0 01-.067-26.829l-8.691-9.114a17.322 17.322 0 01-25.422.1 19.713 19.713 0 01-.067-26.829l-8.691-9.114a17.352 17.352 0 01-25.448.071 19.675 19.675 0 01-.041-26.8l-8.691-9.115a17.351 17.351 0 01-25.448.072 19.712 19.712 0 01-.068-26.829l-8.664-9.087a17.351 17.351 0 01-25.448.072 19.711 19.711 0 01-.067-26.829l-8.691-9.115a17.321 17.321 0 01-25.422.1 19.712 19.712 0 01-.067-26.829l-8.957-9.392a17.323 17.323 0 01-25.422.1 19.714 19.714 0 01-.067-26.83l-8.691-9.114a17.351 17.351 0 01-25.448.072 19.678 19.678 0 01-.041-26.8l-8.691-9.114a17.35 17.35 0 01-25.448.071 19.71 19.71 0 01-.067-26.828l-8.665-9.087a17.351 17.351 0 01-25.448.071 19.712 19.712 0 01-.067-26.829l-8.691-9.114a17.322 17.322 0 01-25.422.1 19.712 19.712 0 01-.067-26.829l-8.691-9.114a17.351 17.351 0 01-25.448.071 19.675 19.675 0 01-.041-26.8l-8.691-9.115a17.351 17.351 0 01-25.448.072 19.711 19.711 0 01-.068-26.829L499.4 1163a17.351 17.351 0 01-25.448.07 19.711 19.711 0 01-.068-26.828l-8.691-9.115a17.32 17.32 0 01-25.421.1 19.711 19.711 0 01-.067-26.829l-8.957-9.398a17.321 17.321 0 01-25.421.1 19.714 19.714 0 01-.067-26.83l-8.691-9.114a17.351 17.351 0 01-25.448.072 19.676 19.676 0 01-.041-26.8l-8.691-9.114a17.351 17.351 0 01-25.448.071 19.712 19.712 0 01-.067-26.829l-8.665-9.086a17.352 17.352 0 01-25.448.071 19.71 19.71 0 01-.067-26.829L294 947.6a17.321 17.321 0 01-25.421.1 19.712 19.712 0 01-.067-26.829l-8.692-9.115a17.35 17.35 0 01-25.447.072 19.675 19.675 0 01-.041-26.8l-8.691-9.114a17.351 17.351 0 01-25.448.072 19.711 19.711 0 01-.068-26.829l-8.664-9.087a17.351 17.351 0 01-25.448.071 19.711 19.711 0 01-.068-26.829l-8.691-9.114a17.356 17.356 0 01-16.932 5.062z" transform="translate(-138.752 -1399.617)" fill="url(#d)"/></g><path d="M838.137-62.772H-177.561V1246.55h-14.516v1108.328h574.512l2.479-12.653c-11.117-2.42-18.274-13.893-15.978-25.613s13.179-19.266 24.3-16.845l2.833-14.462c-11.117-2.42-18.283-13.85-15.987-25.57s13.179-19.265 24.3-16.845l2.92-14.9c-11.118-2.42-18.283-13.85-15.987-25.569s13.178-19.266 24.3-16.846l2.833-14.461c-11.117-2.421-18.274-13.894-15.978-25.615s13.169-19.221 24.287-16.8l2.833-14.462c-11.118-2.42-18.274-13.893-15.978-25.614s13.166-19.272 24.281-16.854l2.825-14.418c-11.117-2.421-18.274-13.893-15.978-25.614s13.178-19.265 24.295-16.844l2.834-14.463c-11.118-2.421-18.283-13.85-15.987-25.57s13.178-19.266 24.3-16.844l2.833-14.462c-11.117-2.422-18.274-13.894-15.978-25.615s13.169-19.221 24.287-16.8l2.833-14.462c-11.117-2.421-18.274-13.893-15.978-25.613s13.178-19.266 24.3-16.845l2.825-14.418c-11.117-2.421-18.274-13.894-15.978-25.614s13.178-19.266 24.295-16.844l2.834-14.464c-11.118-2.421-18.283-13.849-15.987-25.569s13.178-19.266 24.3-16.845l2.92-14.9c-11.117-2.421-18.282-13.85-15.987-25.57s13.179-19.266 24.3-16.845l2.833-14.463c-11.117-2.421-18.273-13.893-15.978-25.613s13.17-19.221 24.287-16.8l2.833-14.463c-11.117-2.421-18.273-13.893-15.977-25.615s13.178-19.265 24.295-16.844l2.825-14.418c-11.118-2.421-18.274-13.894-15.978-25.615s13.178-19.265 24.3-16.844l2.833-14.464c-11.117-2.42-18.282-13.849-15.986-25.569s13.178-19.266 24.295-16.845l2.833-14.462c-11.117-2.421-18.274-13.893-15.978-25.614s13.17-19.221 24.287-16.8l2.833-14.463c-11.117-2.421-18.273-13.893-15.978-25.613a21.278 21.278 0 0114.072-16.324c.106-.035.213-.067.32-.1q.744-.229 1.508-.4c.121-.026.241-.057.362-.081a19.33 19.33 0 013.688-.384c.176 0 .353 0 .529.007q.691.013 1.387.076c.184.017.368.031.552.052a21.37 21.37 0 011.867.3h.011l.3-1.525 2.527-12.895.009-.043c-11.11-2.419-18.263-13.879-15.981-25.591 2.3-11.708 13.18-19.242 24.29-16.824l2.833-14.463a19.192 19.192 0 01-1.815-.5 19.81 19.81 0 01-2.132-.808c-.04-.018-.077-.039-.117-.057a19.801 19.801 0 01-1.526-.788c-.124-.071-.248-.141-.37-.213a21.542 21.542 0 01-1.5-.978c-.07-.051-.136-.107-.206-.158-.42-.311-.826-.641-1.22-.984-.117-.1-.234-.2-.348-.3q-.639-.58-1.23-1.208c-.1-.1-.189-.214-.285-.32q-.461-.514-.888-1.058c-.115-.145-.231-.289-.342-.437q-.49-.656-.932-1.349c-.11-.173-.211-.35-.316-.526q-.3-.509-.581-1.036c-.1-.2-.212-.393-.31-.594q-.344-.705-.639-1.437c-.092-.23-.176-.463-.261-.7a22.646 22.646 0 01-.963-12.165c2.3-11.721 13.178-19.266 24.3-16.845l2.833-14.463c-11.117-2.421-18.283-13.85-15.987-25.57s13.179-19.265 24.3-16.844l2.833-14.462c-11.117-2.422-18.274-13.894-15.978-25.615s13.17-19.221 24.287-16.8l2.833-14.462c-11.117-2.421-18.274-13.893-15.978-25.614s13.178-19.266 24.3-16.845l2.824-14.418c-11.117-2.421-18.274-13.893-15.978-25.615s13.178-19.265 24.3-16.844l2.833-14.462c-11.117-2.422-18.283-13.85-15.987-25.57s13.178-19.266 24.3-16.845l2.92-14.9c-11.118-2.421-18.283-13.85-15.987-25.57s13.178-19.266 24.3-16.845l2.833-14.463c-11.118-2.419-18.274-13.893-15.979-25.613s13.17-19.221 24.288-16.8l2.833-14.462c-11.163-2.42-18.323-13.892-16.023-25.613s13.178-19.266 24.295-16.845l2.825-14.418c-11.117-2.421-18.274-13.893-15.978-25.615s13.178-19.265 24.295-16.844l2.834-14.462c-11.118-2.422-18.283-13.85-15.987-25.57s13.178-19.266 24.295-16.845l2.834-14.462c-11.118-2.421-18.274-13.893-15.978-25.613s13.169-19.221 24.286-16.8l2.834-14.463c-11.118-2.421-18.274-13.894-15.978-25.613s13.178-19.267 24.295-16.845l2.825-14.419c-11.117-2.42-18.274-13.893-15.978-25.613s13.181-19.268 24.295-16.848l2.833-14.462c-11.117-2.421-18.282-13.849-15.986-25.569s13.178-19.266 24.295-16.845l2.92-14.905c-11.117-2.421-18.283-13.849-15.987-25.569s13.179-19.266 24.3-16.845l2.833-14.462c-11.117-2.421-18.274-13.893-15.978-25.613s13.17-19.221 24.287-16.8l2.833-14.462c-11.117-2.421-18.274-13.894-15.978-25.615s13.179-19.265 24.3-16.844l2.824-14.419c-11.117-2.421-18.273-13.893-15.978-25.613s13.179-19.266 24.3-16.845l2.833-14.462c-11.117-2.421-18.282-13.849-15.986-25.569s13.178-19.266 24.295-16.845l2.833-14.462c-11.117-2.421-18.274-13.893-15.978-25.613s13.17-19.221 24.287-16.8l2.833-14.461c-11.117-2.421-18.274-13.894-15.978-25.615s13.179-19.266 24.3-16.845l2.824-14.418c-11.133-2.428-18.295-13.9-15.995-25.621s13.179-19.266 24.3-16.845l2.833-14.462a20.91 20.91 0 01-15.189-13.905z" style="mix-blend-mode:overlay;isolation:isolate" opacity=".8" fill="#fff"/><path d="M1023.044-59.541H7.346v1309.322H-7.17v1108.328h574.512l2.479-12.653c-11.117-2.42-18.274-13.893-15.978-25.613s13.179-19.266 24.3-16.845l2.833-14.462c-11.117-2.42-18.283-13.85-15.987-25.57s13.179-19.265 24.3-16.845l2.92-14.9c-11.118-2.42-18.283-13.85-15.987-25.569s13.178-19.266 24.3-16.846l2.833-14.461c-11.117-2.421-18.274-13.894-15.978-25.615s13.169-19.221 24.287-16.8l2.833-14.462c-11.118-2.42-18.274-13.893-15.978-25.614s13.166-19.272 24.281-16.854l2.825-14.418c-11.117-2.421-18.274-13.893-15.978-25.614s13.178-19.265 24.295-16.844l2.834-14.463c-11.118-2.421-18.283-13.85-15.987-25.57s13.178-19.266 24.3-16.844l2.833-14.462c-11.117-2.422-18.274-13.894-15.978-25.615s13.169-19.221 24.287-16.8l2.833-14.462c-11.117-2.421-18.274-13.893-15.978-25.613s13.178-19.266 24.3-16.845l2.825-14.418c-11.117-2.421-18.274-13.894-15.978-25.614s13.178-19.266 24.295-16.844l2.834-14.464c-11.118-2.421-18.283-13.849-15.987-25.569s13.178-19.266 24.3-16.845l2.92-14.9c-11.117-2.421-18.282-13.85-15.987-25.57s13.179-19.266 24.3-16.845l2.833-14.463c-11.117-2.421-18.273-13.893-15.978-25.613s13.17-19.221 24.287-16.8l2.833-14.463c-11.117-2.421-18.273-13.893-15.977-25.615s13.178-19.265 24.295-16.844l2.825-14.418c-11.118-2.421-18.274-13.894-15.978-25.615s13.178-19.265 24.3-16.844l2.833-14.464c-11.117-2.42-18.282-13.849-15.986-25.569s13.178-19.266 24.295-16.845l2.833-14.462c-11.117-2.421-18.274-13.893-15.978-25.614s13.17-19.221 24.287-16.8l2.833-14.463c-11.117-2.421-18.273-13.893-15.978-25.613a21.278 21.278 0 0114.072-16.324c.106-.035.213-.067.32-.1q.744-.229 1.508-.4c.121-.026.241-.057.362-.081a19.33 19.33 0 013.688-.384c.176 0 .353 0 .529.007q.691.013 1.387.076c.184.017.368.031.552.052a21.37 21.37 0 011.867.3h.011l.3-1.525 2.527-12.895.009-.043c-11.11-2.419-18.263-13.879-15.981-25.591 2.3-11.708 13.18-19.242 24.29-16.824l2.833-14.463a19.192 19.192 0 01-1.815-.5 19.81 19.81 0 01-2.132-.808c-.04-.018-.077-.039-.117-.057a19.801 19.801 0 01-1.526-.788c-.124-.071-.248-.141-.37-.213a21.542 21.542 0 01-1.5-.978c-.07-.051-.136-.107-.206-.158-.42-.311-.826-.641-1.22-.984-.117-.1-.234-.2-.348-.3q-.639-.58-1.23-1.208c-.1-.1-.189-.214-.285-.32q-.461-.514-.888-1.058c-.115-.145-.231-.289-.342-.437q-.49-.656-.932-1.349c-.11-.173-.211-.35-.316-.526q-.3-.509-.581-1.036c-.1-.2-.212-.393-.31-.594q-.344-.705-.639-1.437c-.092-.23-.176-.463-.261-.7a22.646 22.646 0 01-.963-12.165c2.3-11.721 13.178-19.266 24.3-16.845l2.833-14.463c-11.117-2.421-18.283-13.85-15.987-25.57s13.179-19.265 24.3-16.844l2.833-14.462c-11.117-2.422-18.274-13.894-15.978-25.615s13.17-19.221 24.287-16.8l2.833-14.462c-11.117-2.421-18.274-13.893-15.978-25.614s13.178-19.266 24.3-16.845l2.824-14.418c-11.117-2.421-18.274-13.893-15.978-25.615s13.178-19.265 24.3-16.844l2.833-14.462c-11.117-2.422-18.283-13.85-15.987-25.57s13.178-19.266 24.3-16.845l2.92-14.9c-11.118-2.421-18.283-13.85-15.987-25.57s13.178-19.266 24.3-16.845l2.833-14.463c-11.118-2.419-18.274-13.893-15.979-25.613s13.17-19.221 24.288-16.8l2.833-14.462c-11.163-2.42-18.323-13.892-16.023-25.613s13.178-19.266 24.295-16.845l2.825-14.418c-11.117-2.421-18.274-13.893-15.978-25.615s13.178-19.265 24.295-16.844l2.834-14.462c-11.118-2.422-18.283-13.85-15.987-25.57s13.178-19.266 24.295-16.845l2.834-14.462c-11.118-2.421-18.274-13.893-15.978-25.613s13.169-19.221 24.286-16.8l2.834-14.463c-11.118-2.421-18.274-13.894-15.978-25.613s13.178-19.267 24.295-16.845l2.825-14.419c-11.117-2.42-18.274-13.893-15.978-25.613s13.181-19.268 24.295-16.848l2.833-14.462c-11.117-2.421-18.282-13.849-15.986-25.569s13.178-19.266 24.295-16.845l2.92-14.905c-11.117-2.421-18.283-13.849-15.987-25.569s13.179-19.266 24.3-16.845l2.833-14.462c-11.117-2.421-18.274-13.893-15.978-25.613s13.17-19.221 24.287-16.8l2.833-14.462c-11.117-2.421-18.274-13.894-15.978-25.615s13.179-19.265 24.3-16.844l2.824-14.419c-11.117-2.421-18.273-13.893-15.978-25.613s13.179-19.266 24.3-16.845l2.833-14.462c-11.117-2.421-18.282-13.849-15.986-25.569s13.178-19.266 24.295-16.845l2.833-14.462c-11.117-2.421-18.274-13.893-15.978-25.613s13.17-19.221 24.287-16.8l2.833-14.461c-11.117-2.421-18.274-13.894-15.978-25.615s13.179-19.266 24.3-16.845l2.824-14.418c-11.133-2.428-18.295-13.9-15.995-25.621s13.179-19.266 24.3-16.845l2.833-14.462a20.91 20.91 0 01-15.189-13.905z" transform="translate(-184.907 -3.231)" fill="url(#e)"/><path d="M1011.617-59.541H-4.081v1309.322h-9.605v1125.5h545.314c2.873-10.888 13.289-17.73 23.942-15.411l2.825-14.418c-11.118-2.42-18.275-13.893-15.978-25.613s13.178-19.266 24.295-16.845l2.833-14.462c-11.117-2.42-18.282-13.85-15.986-25.57s13.178-19.265 24.295-16.845l2.92-14.9c-11.117-2.42-18.282-13.85-15.986-25.569s13.178-19.266 24.295-16.846l2.833-14.461c-11.117-2.421-18.274-13.894-15.978-25.615s13.17-19.221 24.287-16.8l2.833-14.462c-11.117-2.42-18.274-13.893-15.978-25.614s13.179-19.265 24.3-16.845l2.824-14.418c-11.117-2.421-18.274-13.893-15.978-25.614s13.179-19.265 24.3-16.844l2.833-14.463c-11.117-2.421-18.283-13.85-15.987-25.57s13.179-19.266 24.3-16.844l2.833-14.462c-11.117-2.422-18.274-13.894-15.978-25.615s13.17-19.221 24.287-16.8l2.833-14.462c-11.117-2.421-18.274-13.893-15.978-25.613s13.178-19.266 24.3-16.845l2.824-14.418c-11.117-2.421-18.274-13.894-15.978-25.614s13.179-19.266 24.3-16.844l2.833-14.464c-11.117-2.421-18.283-13.849-15.987-25.569s13.179-19.266 24.3-16.845l2.92-14.9c-11.117-2.421-18.283-13.85-15.987-25.57s13.178-19.266 24.3-16.845l2.833-14.463c-11.117-2.421-18.274-13.893-15.978-25.613s13.169-19.221 24.287-16.8l2.833-14.463c-11.117-2.421-18.274-13.893-15.978-25.615s13.178-19.265 24.295-16.844l2.825-14.418c-11.117-2.421-18.274-13.894-15.978-25.615s13.178-19.265 24.3-16.844l2.834-14.464c-11.118-2.42-18.283-13.849-15.987-25.569s13.178-19.266 24.3-16.845l2.833-14.462c-11.117-2.421-18.274-13.893-15.978-25.614s13.169-19.221 24.287-16.8l2.833-14.463c-11.117-2.421-18.274-13.893-15.978-25.613a21.279 21.279 0 0114.07-16.324c.107-.035.215-.067.323-.1q.742-.229 1.5-.4c.122-.027.243-.058.366-.082a19.292 19.292 0 013.685-.384c.177 0 .355 0 .532.007q.69.013 1.384.076c.185.017.369.031.554.053a20.33 20.33 0 011.855.3h.022l.54-2.757 2.285-11.662.008-.043c-11.109-2.419-18.263-13.879-15.981-25.592 2.3-11.707 13.18-19.241 24.29-16.823l2.834-14.463a19.13 19.13 0 01-1.816-.5 19.958 19.958 0 01-2.133-.808c-.038-.017-.074-.038-.112-.055a19.553 19.553 0 01-1.53-.791 21.308 21.308 0 01-1.869-1.19c-.07-.051-.136-.107-.205-.158-.42-.311-.826-.641-1.221-.984-.116-.1-.234-.2-.348-.3a21.901 21.901 0 01-1.23-1.208c-.1-.1-.189-.214-.284-.32q-.462-.514-.889-1.058c-.114-.145-.231-.289-.341-.437q-.492-.656-.933-1.349c-.109-.173-.211-.35-.316-.526q-.3-.509-.581-1.036c-.1-.2-.211-.393-.309-.594-.23-.47-.442-.95-.64-1.438-.092-.229-.175-.462-.261-.695a22.645 22.645 0 01-.962-12.165c2.3-11.721 13.178-19.266 24.295-16.845l2.833-14.463c-11.117-2.421-18.282-13.85-15.986-25.57s13.178-19.265 24.3-16.844l2.833-14.462c-11.117-2.422-18.274-13.894-15.978-25.615s13.17-19.221 24.287-16.8l2.833-14.462c-11.117-2.421-18.273-13.893-15.978-25.614s13.179-19.266 24.3-16.845l2.825-14.418c-11.118-2.421-18.275-13.893-15.978-25.615s13.178-19.265 24.3-16.844l2.833-14.462c-11.117-2.422-18.282-13.85-15.986-25.57s13.178-19.266 24.295-16.845l2.92-14.9c-11.117-2.421-18.283-13.85-15.987-25.57s13.179-19.266 24.3-16.845l2.833-14.463c-11.117-2.419-18.274-13.893-15.978-25.613s13.17-19.221 24.287-16.8l2.833-14.462c-11.117-2.421-18.274-13.893-15.978-25.613s13.178-19.266 24.3-16.845l2.824-14.418c-11.117-2.421-18.274-13.893-15.978-25.615s13.178-19.265 24.3-16.844l2.833-14.462c-11.117-2.422-18.283-13.85-15.987-25.57s13.179-19.266 24.3-16.845l2.833-14.462c-11.117-2.421-18.274-13.893-15.978-25.613s13.17-19.221 24.287-16.8l2.833-14.463c-11.117-2.421-18.274-13.894-15.978-25.613s13.178-19.267 24.3-16.845l2.824-14.419c-11.117-2.42-18.274-13.893-15.978-25.613s13.178-19.266 24.3-16.845l2.833-14.462c-11.117-2.421-18.283-13.849-15.987-25.569s13.178-19.266 24.3-16.845l2.919-14.905c-11.117-2.421-18.282-13.849-15.986-25.569s13.178-19.266 24.3-16.845l2.832-14.462c-11.117-2.421-18.273-13.893-15.977-25.613s13.169-19.221 24.287-16.8l2.833-14.462c-11.117-2.421-18.274-13.894-15.978-25.615s13.178-19.265 24.295-16.844l2.825-14.419c-11.117-2.421-18.274-13.893-15.978-25.613s13.178-19.266 24.295-16.845l2.834-14.462c-11.118-2.421-18.283-13.849-15.987-25.569s13.178-19.266 24.295-16.845l2.834-14.462c-11.118-2.421-18.274-13.893-15.978-25.613s13.169-19.221 24.286-16.8l2.834-14.461c-11.118-2.421-18.274-13.894-15.978-25.615s13.178-19.266 24.295-16.845l2.825-14.418c-11.117-2.421-18.274-13.893-15.978-25.613s13.178-19.266 24.295-16.845l2.833-14.462a20.914 20.914 0 01-15.263-13.926z" transform="translate(-184.907 -3.231)" fill="url(#f)"/><g clip-path="url(#g)" transform="translate(-198.593 -62.772)"><path d="M194.027 2474.428l279.218-1362.95-777.894 1127.7zm995.923-191.047l-716.7-1171.9 206.3 1377.309zM-596.407 291.369l-223.14 525.738 1292.792 294.371zM11.74-163.128l-255.2 102.7 716.705 1171.9L266.94-265.831zm-650.074 2030.205l1111.579-755.6-1306.412 217.5zM752.463-251.472l-279.218 1362.95 777.893-1127.7zm1013.574 1657.321L473.245 1111.478 1542.9 1931.586zm-83.8-780.92l-97.416-269.05-1111.579 755.6 1306.412-217.5z" transform="translate(13.686 48.346)" style="mix-blend-mode:overlay;isolation:isolate" opacity=".5" fill="url(#h)"/></g></g></svg>