<svg xmlns="http://www.w3.org/2000/svg" width="81.363" height="79.114"><defs><style>.a{fill:#fff}</style></defs><g transform="translate(6.121)"><circle class="a" cx="2.676" cy="2.676" r="2.676" transform="translate(63.768)"/><circle class="a" cx="2.676" cy="2.676" r="2.676" transform="translate(47.826)"/><circle class="a" cx="2.676" cy="2.676" r="2.676" transform="translate(31.884)"/><circle class="a" cx="2.676" cy="2.676" r="2.676" transform="translate(15.942)"/><circle class="a" cx="2.676" cy="2.676" r="2.676"/><circle class="a" cx="2.676" cy="2.676" r="2.676" transform="translate(47.826 14.532)"/><circle class="a" cx="2.676" cy="2.676" r="2.676" transform="translate(31.884 14.532)"/><circle class="a" cx="2.676" cy="2.676" r="2.676" transform="translate(15.942 14.532)"/><circle class="a" cx="2.676" cy="2.676" r="2.676" transform="translate(31.884 29.064)"/></g><path class="a" d="M42.835 66.93l37.184-29.062a3.5 3.5 0 001.344-2.754V23.539a3.5 3.5 0 00-5.65-2.755l-32.878 25.7a3.5 3.5 0 01-4.307 0L5.65 20.784A3.5 3.5 0 000 23.539v11.579a3.5 3.5 0 001.344 2.754l37.185 29.062a3.5 3.5 0 004.306-.004z"/><path class="a" d="M41.881 78.7l38.733-30.272a1.948 1.948 0 00.749-1.535 1.948 1.948 0 00-3.148-1.535l-36.334 28.4a1.948 1.948 0 01-2.4 0l-36.334-28.4a1.948 1.948 0 00-3.148 1.535 1.948 1.948 0 00.749 1.535L39.482 78.7a1.949 1.949 0 002.399 0z"/></svg>