<svg xmlns="http://www.w3.org/2000/svg" width="254.021" height="78.057" viewBox="0 0 254.021 78.057"><defs><style>.a{font-size:32.177px;font-family:Lato-Heavy, Lato;font-weight:800;}.b{font-size:29.624px;font-family:Lato-MediumItalic, Lato;font-weight:500;font-style:italic;}</style></defs><g transform="translate(-613.124 -1226.972)"><text class="a" transform="translate(657.145 1297.027)"><tspan x="0" y="0" xml:space="preserve"> 316 876 8730</tspan></text><path d="M613.124,1305.029c.21-.629.407-1.221.606-1.813.224-.666.451-1.331.675-2q.639-1.9,1.277-3.794c.138-.409.282-.817.408-1.23a.394.394,0,0,0-.028-.285,16.4,16.4,0,0,1-2.057-5.519,16.169,16.169,0,0,1-.266-3.43,16.724,16.724,0,0,1,4.369-10.859,16.714,16.714,0,0,1,8.938-5.105,16.956,16.956,0,0,1,4.29-.334,16.689,16.689,0,0,1,10.013,3.979,16.84,16.84,0,0,1,3.7,4.47,16.629,16.629,0,0,1,1.591,3.829,17,17,0,0,1,.4,7,16.586,16.586,0,0,1-1.058,3.813,16.786,16.786,0,0,1-4.627,6.38,16.162,16.162,0,0,1-2.374,1.7,16.693,16.693,0,0,1-9.491,2.288,16.258,16.258,0,0,1-5.635-1.342c-.453-.2-.891-.435-1.341-.644a.409.409,0,0,0-.269-.022q-2.583.814-5.161,1.642C615.776,1304.173,614.47,1304.6,613.124,1305.029Zm4.31-4.267c.118-.033.193-.051.266-.074q.912-.289,1.823-.582c1.02-.327,2.039-.653,3.056-.987a.421.421,0,0,1,.409.049q.479.311.985.577a13.984,13.984,0,0,0,4.426,1.456,13.864,13.864,0,0,0,8.772-1.552,14,14,0,0,0,7.238-11.216,13.98,13.98,0,0,0-1.325-7.05,13.937,13.937,0,0,0-3.16-4.268,13.967,13.967,0,0,0-22.36,4.989,13.994,13.994,0,0,0-.718,8.276,13.656,13.656,0,0,0,2.205,5.012.425.425,0,0,1,.055.428q-.572,1.674-1.137,3.35C617.794,1299.687,617.621,1300.2,617.434,1300.762Z"/><path d="M622.113,1283.589a4.993,4.993,0,0,1,1.513-3.777,1.8,1.8,0,0,1,1.113-.6,4.552,4.552,0,0,1,.617.027,2.4,2.4,0,0,0,.385.027.778.778,0,0,1,.847.589c.151.362.272.737.409,1.1.289.772.575,1.546.874,2.315a.869.869,0,0,1-.039.759,6.024,6.024,0,0,1-1.127,1.394c-.352.364-.37.546-.117.992a13,13,0,0,0,1.935,2.65,11.094,11.094,0,0,0,2.87,2.148c.28.146.564.285.848.423a.627.627,0,0,0,.867-.154c.46-.506.915-1.017,1.351-1.543.317-.383.515-.461.967-.242.609.3,1.21.607,1.81.922.543.284,1.078.583,1.618.873a.572.572,0,0,1,.324.582,4.714,4.714,0,0,1-.391,1.706,2.676,2.676,0,0,1-1.064,1.124,4.947,4.947,0,0,1-1.689.745,4.528,4.528,0,0,1-2.512-.155,28.358,28.358,0,0,1-3.448-1.423,12.194,12.194,0,0,1-2.523-1.747,20.876,20.876,0,0,1-3.888-4.694,9.913,9.913,0,0,1-1.339-2.86C622.209,1284.313,622.156,1283.836,622.113,1283.589Z"/><text class="b" transform="translate(739.237 1255.972)"><tspan x="-76.273" y="0">Preguntas al</tspan></text></g></svg>