<svg xmlns="http://www.w3.org/2000/svg" width="426.774" height="98.764"><path d="M399.76 5.019H31.36A27.013 27.013 0 004.347 32.032v39.719A27.013 27.013 0 0031.36 98.764h368.4a27.013 27.013 0 0027.013-27.013V32.032A27.013 27.013 0 00399.76 5.019zM29.013 60.311a8.419 8.419 0 118.419-8.42 8.419 8.419 0 01-8.419 8.42zm373.1 0a8.419 8.419 0 118.419-8.42 8.419 8.419 0 01-8.421 8.42z" opacity=".14"/><path d="M395.409.668h-368.4A27.014 27.014 0 00-.005 27.681v39.72a27.014 27.014 0 0027.014 27.013h368.4a27.014 27.014 0 0027.014-27.013v-39.72A27.014 27.014 0 00395.409.668zM24.662 55.96a8.419 8.419 0 118.419-8.419 8.419 8.419 0 01-8.419 8.419zm373.1 0a8.419 8.419 0 118.419-8.419 8.419 8.419 0 01-8.42 8.419z" fill="#fff"/><g><text transform="translate(231.518 40)" font-size="41" font-family="Lato-Bold,Lato" font-weight="700"><tspan x="-126.649" y="0">Ten en cuenta</tspan><tspan font-family="Lato-Black,Lato" font-weight="800"><tspan x="-106.303" y="36">estos pasos</tspan></tspan></text><path d="M63.797 52.539h-3.293a1.171 1.171 0 01-1.282-1.283q-.009-3.311 0-6.622a1.175 1.175 0 011.295-1.275q3.275-.007 6.55 0a1.186 1.186 0 011.333 1.342v6.514a1.178 1.178 0 01-1.311 1.325l-3.292-.001zm2.27-2.321V45.68h-4.52v4.538zM63.842 54.552h3.257a1.156 1.156 0 011.3 1.291q.008 3.293 0 6.586a1.155 1.155 0 01-1.269 1.287c-1.472.009-2.943 0-4.415 0-.735 0-1.471.008-2.207 0a1.166 1.166 0 01-1.288-1.275q-.007-3.256 0-6.513c0-.97.426-1.378 1.4-1.379zm2.225 6.859V56.87h-4.521v4.541zM80.448 37.911h-8.289a1.153 1.153 0 01-1.134-1.629 1.182 1.182 0 011.182-.674h16.396a1.165 1.165 0 011.306 1.106 1.13 1.13 0 01-1.209 1.192c-1.834.005-3.668 0-5.5 0zM80.381 60.285h-8.252a1.159 1.159 0 01-1.188-.913 1.125 1.125 0 01.663-1.274 1.857 1.857 0 01.668-.112c1.8-.009 3.6-.005 5.393 0q5.43 0 10.859.007a2.105 2.105 0 01.674.091 1.119 1.119 0 01.7 1.253 1.148 1.148 0 01-1.156.949c-1.846.007-3.692 0-5.538 0zM80.438 46.807h8.325a1.137 1.137 0 01.45 2.187 1.739 1.739 0 01-.6.092q-7.129.008-14.26 0c-.784 0-1.569.017-2.352-.009a1.137 1.137 0 01-.31-2.212 1.845 1.845 0 01.569-.067q4.09-.007 8.18 0zM62.777 38.406c.453-.558.887-1.089 1.317-1.621q1.975-2.449 3.946-4.9a1.2 1.2 0 011.3-.483 1.062 1.062 0 01.542 1.731c-.936 1.18-1.889 2.347-2.835 3.52l-3.244 4.026a1.162 1.162 0 01-1.937.041q-1.23-1.376-2.456-2.753a1.084 1.084 0 01-.022-1.605 1.184 1.184 0 011.681.139c.57.624 1.127 1.256 1.708 1.905z"/></g></svg>