<svg xmlns="http://www.w3.org/2000/svg" width="252.509" height="64" viewBox="0 0 252.509 64"><defs><style>.a{font-size:32px;font-family:Lato-Bold, Lato;font-weight:700;}.b{font-family:Lato-Black, Lato;font-weight:800;}</style></defs><g transform="translate(-466.723 -752)"><g transform="translate(466.723 764.318)"><g transform="translate(0 0)"><path d="M728.353,650.255c-1.369,0-2.739,0-4.108,0a1.461,1.461,0,0,1-1.6-1.6q-.01-4.13,0-8.261a1.467,1.467,0,0,1,1.616-1.591q4.085-.008,8.171,0a1.48,1.48,0,0,1,1.663,1.675q0,4.063,0,8.126a1.468,1.468,0,0,1-1.635,1.652C731.092,650.259,729.723,650.255,728.353,650.255Zm2.832-2.9V641.7h-5.639v5.662Z" transform="translate(-722.43 -623.838)"/><path d="M728.409,657.065c1.354,0,2.709,0,4.063,0a1.442,1.442,0,0,1,1.621,1.611q.01,4.108,0,8.216a1.442,1.442,0,0,1-1.584,1.606c-1.836.012-3.672,0-5.507,0-.918,0-1.836.01-2.754,0a1.453,1.453,0,0,1-1.605-1.591q-.009-4.062,0-8.125c0-1.211.531-1.719,1.744-1.72Q726.4,657.063,728.409,657.065Zm2.776,8.557v-5.665h-5.639v5.665Z" transform="translate(-722.43 -628.135)"/><path d="M753.611,629.038q-5.169,0-10.34,0A1.437,1.437,0,0,1,741.858,627a1.475,1.475,0,0,1,1.474-.841q3.251,0,6.5,0,6.977,0,13.952,0a1.454,1.454,0,0,1,1.628,1.38,1.41,1.41,0,0,1-1.508,1.487q-3.432.009-6.864,0Z" transform="translate(-726.918 -620.866)"/><path d="M753.531,665.532q-5.147,0-10.3,0a1.444,1.444,0,0,1-1.481-1.138,1.4,1.4,0,0,1,.826-1.59,2.307,2.307,0,0,1,.834-.141c2.242-.011,4.485-.006,6.728-.005q6.774,0,13.546.009a2.606,2.606,0,0,1,.841.114,1.4,1.4,0,0,1,.873,1.562,1.431,1.431,0,0,1-1.442,1.184c-2.3.008-4.605.005-6.908.006Z" transform="translate(-726.92 -629.45)"/><path d="M753.6,644.431q5.192,0,10.385,0a1.418,1.418,0,0,1,.561,2.729,2.15,2.15,0,0,1-.749.115q-8.895.009-17.79.005c-.978,0-1.957.021-2.934-.01a1.418,1.418,0,0,1-.387-2.759,2.321,2.321,0,0,1,.71-.084q5.1-.007,10.2,0Z" transform="translate(-726.921 -625.162)"/><path d="M727.016,628.026c.566-.7,1.106-1.358,1.643-2.023q2.464-3.054,4.923-6.113a1.5,1.5,0,0,1,1.628-.6,1.325,1.325,0,0,1,.675,2.16c-1.168,1.472-2.357,2.928-3.536,4.392q-2.024,2.511-4.047,5.023a1.45,1.45,0,0,1-2.417.051q-1.534-1.716-3.063-3.435a1.351,1.351,0,0,1-.027-2,1.475,1.475,0,0,1,2.1.173C725.6,626.427,726.292,627.215,727.016,628.026Z" transform="translate(-722.365 -619.237)"/></g></g><text class="a" transform="translate(521.233 784)"><tspan x="0" y="0">Ten en cuenta</tspan><tspan class="b"><tspan x="0" y="25">estos pasos</tspan></tspan></text></g></svg>