<svg xmlns="http://www.w3.org/2000/svg" width="721.729" height="419.532"><defs><filter id="a" x="16.736" y="47.865" width="528.54" height="194.581" filterUnits="userSpaceOnUse"><feOffset dy="7.879"/><feGaussianBlur stdDeviation="5" result="b"/><feFlood flood-color="#551a00" flood-opacity=".439"/><feComposite operator="in" in2="b"/><feComposite in="SourceGraphic"/></filter><filter id="c" x="59.858" y="293.311" width="395.874" height="126.22" filterUnits="userSpaceOnUse"><feOffset dx="-3.867" dy="3.995"/><feGaussianBlur result="d"/><feFlood flood-color="#f9f9f9"/><feComposite operator="in" in2="d"/><feComposite in="SourceGraphic"/></filter><filter id="e" x="350.046" y="234.157" width="172.421" height="153.283" filterUnits="userSpaceOnUse"><feOffset dx="3.877" dy="3.877"/><feGaussianBlur stdDeviation="3.5" result="f"/><feFlood flood-opacity=".369"/><feComposite operator="in" in2="f"/><feComposite in="SourceGraphic"/></filter><filter id="g" x="11.887" y="237.292" width="57.73" height="175.663" filterUnits="userSpaceOnUse"><feOffset dx="3.877" dy="3.877"/><feGaussianBlur stdDeviation="3.5" result="h"/><feFlood flood-opacity=".369"/><feComposite operator="in" in2="h"/><feComposite in="SourceGraphic"/></filter><style>.g{fill:#fff}.h{stroke:#fff}.e{fill:#098fcf}.f{fill:#e20928}.h{fill:none;stroke-linecap:round;stroke-linejoin:round;stroke-width:7.982px}</style></defs><g><rect width="617.696" height="232.896" rx="116.448" transform="rotate(-4.369 648.514 -809.58)" style="mix-blend-mode:overlay;isolation:isolate" opacity=".44"/><rect width="626.268" height="152.619" rx="61.646" transform="matrix(1 -.028 .028 1 0 75.792)" style="mix-blend-mode:overlay;isolation:isolate" opacity=".4"/><g transform="translate(-.003 .004)" filter="url(#a)"><path d="M90.892 116.542a21.132 21.132 0 004.351-.4 17.933 17.933 0 003.306-1.007 15.137 15.137 0 002.451-1.291q1.03-.684 1.767-1.292t1.273-1.007a1.688 1.688 0 01.988-.4 1.314 1.314 0 01.627.133 1.277 1.277 0 01.4.323l2.736 3.42a25.6 25.6 0 01-8.284 6.08 25.864 25.864 0 01-10.907 2.167 21.161 21.161 0 01-8.835-1.767 18.85 18.85 0 01-6.593-4.9 21.659 21.659 0 01-4.123-7.486 30.562 30.562 0 01-1.425-9.555 38.353 38.353 0 011.007-8.93 33.715 33.715 0 012.869-7.79 30.1 30.1 0 014.465-6.422 27.25 27.25 0 015.8-4.826 27.477 27.477 0 016.878-3.04 27.677 27.677 0 017.714-1.064 25.448 25.448 0 015.32.513 18.72 18.72 0 014.327 1.459 17.124 17.124 0 013.534 2.3 21.322 21.322 0 012.926 3.021l-2.66 3.23a3.4 3.4 0 01-.741.684 1.853 1.853 0 01-1.045.266 2.182 2.182 0 01-1.482-.741 15.574 15.574 0 00-2.033-1.615 14.986 14.986 0 00-3.287-1.615 15.464 15.464 0 00-5.244-.741 18.806 18.806 0 00-8.018 1.729 18.826 18.826 0 00-6.46 4.94 23.858 23.858 0 00-4.313 7.771 31.144 31.144 0 00-1.577 10.221 23.756 23.756 0 001.064 7.372 16.573 16.573 0 002.962 5.548 12.888 12.888 0 004.522 3.5 13.47 13.47 0 005.74 1.212zm37.658.874a8.52 8.52 0 004.845-1.463 12.766 12.766 0 003.724-3.933 20.349 20.349 0 002.375-5.7 26.891 26.891 0 00.836-6.76q0-5.206-1.976-7.752a6.867 6.867 0 00-5.776-2.546 8.493 8.493 0 00-4.864 1.463 12.934 12.934 0 00-3.705 3.914 20.067 20.067 0 00-2.379 5.677 26.891 26.891 0 00-.836 6.764q0 5.13 1.976 7.733a6.8 6.8 0 005.78 2.603zm-.684 5.776a15.275 15.275 0 01-5.814-1.083 12.792 12.792 0 01-4.579-3.135 14.515 14.515 0 01-3-5.035 19.918 19.918 0 01-1.083-6.821 27.217 27.217 0 011.54-9.215 24.441 24.441 0 014.218-7.524 19.867 19.867 0 016.308-5.054 17 17 0 017.809-1.843 15.275 15.275 0 015.814 1.083 12.792 12.792 0 014.579 3.135 14.515 14.515 0 013 5.035 19.8 19.8 0 011.083 6.783 27.1 27.1 0 01-1.539 9.177 24.689 24.689 0 01-4.218 7.543 19.988 19.988 0 01-6.308 5.092 16.86 16.86 0 01-7.81 1.862zm25.156-.532l6.8-56.088h7.3l-6.804 56.088zm36.936-33.858a9.37 9.37 0 00-4.18.931 11.508 11.508 0 00-3.42 2.584 15.677 15.677 0 00-2.584 3.876 23.463 23.463 0 00-1.672 4.845 75.506 75.506 0 008.949-1.6 21.769 21.769 0 005.187-1.919 5.79 5.79 0 002.413-2.223 5.533 5.533 0 00.589-2.508 3.587 3.587 0 00-.285-1.349 3.663 3.663 0 00-.912-1.292 4.861 4.861 0 00-1.634-.969 6.968 6.968 0 00-2.451-.376zm11.02 26.714a38.4 38.4 0 01-3.838 3.458 21.708 21.708 0 01-3.819 2.394 17.276 17.276 0 01-4.085 1.392 23.06 23.06 0 01-4.636.437 15.365 15.365 0 01-5.985-1.121 12.616 12.616 0 01-4.541-3.173 14.184 14.184 0 01-2.869-4.959 19.825 19.825 0 01-1.007-6.517 28.481 28.481 0 01.627-5.947 26.508 26.508 0 011.843-5.586 25.783 25.783 0 012.964-4.921 19.881 19.881 0 013.99-3.933 18.365 18.365 0 014.94-2.584 17.706 17.706 0 015.814-.931 14.231 14.231 0 015.13.836 11.183 11.183 0 013.591 2.147 8.5 8.5 0 012.109 2.907 7.879 7.879 0 01.684 3.116 10.412 10.412 0 01-1.026 4.617 9.62 9.62 0 01-3.743 3.8 27.776 27.776 0 01-7.467 2.945 81.669 81.669 0 01-12.2 2.014 6.19 6.19 0 00-.038.684v.684q0 4.978 2.147 7.524t6.479 2.546a12.869 12.869 0 003.192-.361 12.953 12.953 0 002.489-.893 12.033 12.033 0 001.919-1.159q.836-.627 1.539-1.159a14.286 14.286 0 011.311-.893 2.425 2.425 0 011.254-.361 1.334 1.334 0 01.741.209 3.843 3.843 0 01.627.513zm34.732.228a32.538 32.538 0 01-3.724 3.61 18 18 0 01-3.591 2.3 14.685 14.685 0 01-3.724 1.2 23.982 23.982 0 01-4.2.342 14.692 14.692 0 01-5.947-1.14 11.866 11.866 0 01-4.37-3.23 14.216 14.216 0 01-2.679-5.016 21.772 21.772 0 01-.912-6.5 27.945 27.945 0 01.665-6.1 26.517 26.517 0 011.919-5.624 24.538 24.538 0 013.04-4.864 21.141 21.141 0 013.99-3.838 17.927 17.927 0 014.807-2.508 16.921 16.921 0 015.529-.893 13.729 13.729 0 016.441 1.368 13.747 13.747 0 014.579 3.99l-2.318 2.812a3.831 3.831 0 01-.665.532 1.432 1.432 0 01-.779.228 1.642 1.642 0 01-1.064-.456 16.306 16.306 0 00-1.33-1.007 9.424 9.424 0 00-1.995-1.007 8.7 8.7 0 00-3.059-.456 9.067 9.067 0 00-4.75 1.349 12.894 12.894 0 00-3.914 3.743 19.843 19.843 0 00-2.66 5.662 24.456 24.456 0 00-.988 7.106 15.057 15.057 0 00.532 4.142 9.166 9.166 0 001.539 3.154 6.778 6.778 0 002.508 2 8.02 8.02 0 003.439.7 11.234 11.234 0 002.907-.342 11.518 11.518 0 002.242-.836 10.1 10.1 0 001.729-1.1q.76-.608 1.368-1.1a12.844 12.844 0 011.14-.836 1.955 1.955 0 011.064-.342 1.8 1.8 0 011.368.684zm33.744 0a32.538 32.538 0 01-3.724 3.61 18 18 0 01-3.591 2.3 14.685 14.685 0 01-3.724 1.2 23.982 23.982 0 01-4.2.342 14.692 14.692 0 01-5.947-1.14 11.866 11.866 0 01-4.37-3.23 14.216 14.216 0 01-2.679-5.016 21.772 21.772 0 01-.912-6.5 27.945 27.945 0 01.665-6.1 26.517 26.517 0 011.919-5.624 24.538 24.538 0 013.04-4.864 21.141 21.141 0 013.99-3.838 17.927 17.927 0 014.807-2.508 16.921 16.921 0 015.529-.893 13.729 13.729 0 016.441 1.368 13.747 13.747 0 014.579 3.99l-2.318 2.812a3.831 3.831 0 01-.665.532 1.432 1.432 0 01-.779.228 1.642 1.642 0 01-1.064-.456 16.306 16.306 0 00-1.33-1.007 9.424 9.424 0 00-1.991-1.008 8.7 8.7 0 00-3.059-.456 9.067 9.067 0 00-4.75 1.349 12.894 12.894 0 00-3.914 3.743 19.843 19.843 0 00-2.66 5.662 24.456 24.456 0 00-.988 7.106 15.057 15.057 0 00.532 4.142 9.166 9.166 0 001.539 3.154 6.778 6.778 0 002.508 2 8.02 8.02 0 003.439.7 11.234 11.234 0 002.907-.342 11.518 11.518 0 002.242-.836 10.1 10.1 0 001.729-1.1q.76-.608 1.368-1.1a12.842 12.842 0 011.14-.836 1.955 1.955 0 011.064-.342 1.8 1.8 0 011.368.684zm17.708-31.692l-4.674 38.608h-7.3l4.642-38.608zm2.508-11.932a4.552 4.552 0 01-.437 1.957 5.737 5.737 0 01-1.14 1.634 5.227 5.227 0 01-1.615 1.1 4.6 4.6 0 01-1.862.4 4.344 4.344 0 01-1.824-.4 4.9 4.9 0 01-1.539-1.1 5.516 5.516 0 01-1.064-1.634 4.917 4.917 0 01-.4-1.957 4.917 4.917 0 01.4-1.957 5.331 5.331 0 011.083-1.634 5.341 5.341 0 011.577-1.121 4.3 4.3 0 011.843-.418 4.6 4.6 0 011.862.4 5 5 0 011.6 1.1 5.624 5.624 0 011.1 1.634 4.815 4.815 0 01.416 1.996zm18.16 45.296a8.52 8.52 0 004.845-1.463 12.766 12.766 0 003.724-3.933 20.349 20.349 0 002.375-5.7 26.891 26.891 0 00.836-6.764q0-5.206-1.976-7.752a6.867 6.867 0 00-5.776-2.546 8.493 8.493 0 00-4.864 1.463 12.934 12.934 0 00-3.705 3.914 20.067 20.067 0 00-2.375 5.681 26.891 26.891 0 00-.836 6.764q0 5.13 1.976 7.733a6.8 6.8 0 005.776 2.603zm-.68 5.776a15.275 15.275 0 01-5.814-1.083 12.792 12.792 0 01-4.579-3.135 14.516 14.516 0 01-3-5.035 19.917 19.917 0 01-1.083-6.821 27.217 27.217 0 011.539-9.215 24.441 24.441 0 014.218-7.524 19.866 19.866 0 016.308-5.054 17 17 0 017.809-1.843 15.275 15.275 0 015.812 1.078 12.792 12.792 0 014.579 3.135 14.516 14.516 0 013 5.035 19.8 19.8 0 011.083 6.783 27.1 27.1 0 01-1.539 9.177 24.689 24.689 0 01-4.218 7.543 19.987 19.987 0 01-6.308 5.092 16.86 16.86 0 01-7.807 1.867zm35.34-29.906a23.537 23.537 0 016.878-7.334 14.187 14.187 0 017.828-2.47 9.285 9.285 0 014.313.969 7.808 7.808 0 013.059 2.831 12.073 12.073 0 011.615 4.579 21.7 21.7 0 01-.019 6.213l-2.888 24.586h-7.41l2.926-24.586q.532-4.37-.513-6.4a3.937 3.937 0 00-3.857-2.033 7.583 7.583 0 00-3.572.969 14.008 14.008 0 00-3.515 2.736 22.671 22.671 0 00-3.154 4.275 28.082 28.082 0 00-2.451 5.586l-2.166 19.453h-7.41l4.6-38.684h3.724a2.616 2.616 0 011.862.608 2.5 2.5 0 01.646 1.9zm56.354-4.18a19.222 19.222 0 00-2.926-.228 13.31 13.31 0 00-6.346 1.577 16.866 16.866 0 00-5.149 4.237 20.781 20.781 0 00-3.458 6.175 21.427 21.427 0 00-1.273 7.353q0 4.446 1.444 6.631a4.7 4.7 0 004.18 2.185 6.253 6.253 0 003.514-1.159 13.823 13.823 0 003.268-3.192 27.215 27.215 0 002.85-4.807 43.783 43.783 0 002.3-6.042zm-2.584 23.9a30.892 30.892 0 01-2.869 4.2 20 20 0 01-3.268 3.211 14.133 14.133 0 01-3.648 2.053 11.186 11.186 0 01-3.971.722 9.579 9.579 0 01-4.161-.893 8.913 8.913 0 01-3.23-2.622 12.593 12.593 0 01-2.09-4.275 20.984 20.984 0 01-.741-5.852 26.534 26.534 0 01.855-6.707 26.5 26.5 0 012.451-6.175 27.757 27.757 0 013.819-5.32 24.746 24.746 0 014.959-4.18 23.865 23.865 0 015.909-2.717 22.577 22.577 0 016.631-.969 30.116 30.116 0 014.921.4 21.281 21.281 0 014.769 1.387l-4.636 37.391h-3.876a2.174 2.174 0 01-1.938-.741 3.181 3.181 0 01-.494-1.805zm33.405 9.654l7.965-65.682h8.544l-7.965 65.682zm37.958-6.141a9.978 9.978 0 005.674-1.713 14.949 14.949 0 004.361-4.606 23.83 23.83 0 002.781-6.675 31.491 31.491 0 00.979-7.921q0-6.1-2.314-9.078a8.042 8.042 0 00-6.764-2.981 9.946 9.946 0 00-5.7 1.713 15.146 15.146 0 00-4.339 4.583 23.5 23.5 0 00-2.781 6.653 31.491 31.491 0 00-.979 7.921q0 6.008 2.314 9.056a7.969 7.969 0 006.769 3.048zm-.8 6.764a17.887 17.887 0 01-6.809-1.268 14.98 14.98 0 01-5.362-3.671 17 17 0 01-3.516-5.9 23.325 23.325 0 01-1.268-7.988 31.872 31.872 0 011.8-10.791 28.621 28.621 0 014.94-8.811 23.265 23.265 0 017.387-5.918 19.91 19.91 0 019.145-2.158 17.887 17.887 0 016.809 1.268 14.98 14.98 0 015.362 3.671 17 17 0 013.516 5.9 23.182 23.182 0 011.268 7.943 31.738 31.738 0 01-1.8 10.747 28.912 28.912 0 01-4.94 8.833 23.406 23.406 0 01-7.387 5.963 19.744 19.744 0 01-9.145 2.18zm58.651-38.27a3 3 0 01-.779.823 1.729 1.729 0 01-.957.245 2.546 2.546 0 01-1.4-.49q-.734-.489-1.78-1.068a15.062 15.062 0 00-2.514-1.068 11.337 11.337 0 00-3.56-.489 10.8 10.8 0 00-3.516.534 8.815 8.815 0 00-2.692 1.446 6.21 6.21 0 00-1.736 2.158 5.971 5.971 0 00-.6 2.625 3.99 3.99 0 00.8 2.536 7.6 7.6 0 002.091 1.8 17.717 17.717 0 002.959 1.4q1.669.623 3.4 1.313t3.4 1.535a12.441 12.441 0 012.959 2.069 9.529 9.529 0 012.092 2.959 9.809 9.809 0 01.8 4.138 14.983 14.983 0 01-1.246 6.03 15.276 15.276 0 01-3.582 5.073 17.3 17.3 0 01-5.629 3.493 20.1 20.1 0 01-7.378 1.297 18.207 18.207 0 01-7.7-1.558 15.987 15.987 0 01-5.476-3.96l2.136-3.338a2.6 2.6 0 012.27-1.291 2.3 2.3 0 011.491.623q.734.623 1.8 1.357a13.481 13.481 0 002.631 1.355 10.911 10.911 0 004.005.623 10.692 10.692 0 003.76-.623 8.694 8.694 0 002.826-1.669 7.022 7.022 0 001.758-2.425 7.276 7.276 0 00.6-2.937 4.7 4.7 0 00-.8-2.781 6.846 6.846 0 00-2.091-1.913 16.609 16.609 0 00-2.959-1.38q-1.669-.6-3.382-1.246t-3.382-1.424a11.354 11.354 0 01-2.963-1.977 9.329 9.329 0 01-2.092-2.915 9.774 9.774 0 01-.8-4.161 14.005 14.005 0 011.157-5.585 14.682 14.682 0 013.315-4.784 16.073 16.073 0 015.251-3.337 18.623 18.623 0 017.009-1.246 18.313 18.313 0 017.32 1.357 16.507 16.507 0 015.407 3.716zM60.613 193.582a23.086 23.086 0 004.717-.422 17.88 17.88 0 003.516-1.09 15.01 15.01 0 002.559-1.4q1.046-.734 1.847-1.4t1.424-1.09a2.207 2.207 0 011.246-.423 1.743 1.743 0 01.935.223 3.265 3.265 0 01.579.445l4.049 5.028a28.507 28.507 0 01-9.834 7.365 31.2 31.2 0 01-12.994 2.559 25.235 25.235 0 01-10.593-2.117 22.242 22.242 0 01-7.81-5.852 25.853 25.853 0 01-4.851-8.855 35.848 35.848 0 01-1.673-11.172 44.6 44.6 0 011.206-10.521 39.277 39.277 0 013.427-9.17 35.364 35.364 0 015.318-7.543 33.264 33.264 0 016.9-5.7 32.137 32.137 0 018.188-3.6 33.283 33.283 0 019.145-1.246 29.476 29.476 0 016.408.645 23.055 23.055 0 015.229 1.8 20.242 20.242 0 014.227 2.781 23.205 23.205 0 013.4 3.627l-4.004 4.806a4.862 4.862 0 01-1.044.937 2.629 2.629 0 01-1.491.4 2.769 2.769 0 01-1.869-.8 24.5 24.5 0 00-2.247-1.758 15.483 15.483 0 00-3.515-1.758 16.635 16.635 0 00-5.674-.8 19.816 19.816 0 00-8.611 1.891 20.281 20.281 0 00-6.92 5.407 25.981 25.981 0 00-4.607 8.481 34.849 34.849 0 00-1.666 11.143 26.479 26.479 0 001.132 8.057 18.034 18.034 0 003.16 6.03 13.608 13.608 0 0010.791 5.1zm69.2-36.579l-5.521 45.657h-5.562q-3.916 0-3.916-3.783l.267-5.251a24.9 24.9 0 01-7.587 7.3 16.683 16.683 0 01-8.522 2.4 11.105 11.105 0 01-5.118-1.157 9.781 9.781 0 01-3.738-3.36 14.478 14.478 0 01-2.069-5.449 23.937 23.937 0 01-.067-7.387l3.427-28.97h10.991l-3.427 28.97q-.578 4.494.445 6.43a3.845 3.845 0 003.738 1.936 7.708 7.708 0 003.627-.979 14.148 14.148 0 003.582-2.8 22.761 22.761 0 003.2-4.383 28.244 28.244 0 002.448-5.718l2.8-23.452zm16.685 34.977a8.327 8.327 0 003.471 2.314 11.821 11.821 0 003.827.667 8.621 8.621 0 005.34-1.825 16.269 16.269 0 004.138-4.761 25.066 25.066 0 002.67-6.608 29.75 29.75 0 00.935-7.365q0-4.806-1.58-7.142a5.007 5.007 0 00-4.383-2.336 6.639 6.639 0 00-3.694 1.246 16.33 16.33 0 00-3.6 3.4 29.194 29.194 0 00-3.226 5.1 41.636 41.636 0 00-2.559 6.319zm2.448-24.92a29.182 29.182 0 017.454-7.854 15.132 15.132 0 018.833-2.915 12.4 12.4 0 015.162 1.046 10.5 10.5 0 013.96 3.137 14.921 14.921 0 012.536 5.3 28.268 28.268 0 01.89 7.521 36.759 36.759 0 01-3.07 14.685 33.474 33.474 0 01-3.493 6.141 25.714 25.714 0 01-4.517 4.851 20.734 20.734 0 01-5.318 3.2 15.3 15.3 0 01-5.852 1.157 13.456 13.456 0 01-5.585-1.113 14.106 14.106 0 01-4.339-3.026l-2.27 18.379h-10.68l7.388-60.609h5.563a3.932 3.932 0 012.692.846 3.45 3.45 0 01.957 2.714zm52.284 27.813a8.406 8.406 0 004.984-1.58 13.441 13.441 0 003.783-4.228 22.443 22.443 0 002.4-6.163 31.493 31.493 0 00.846-7.387q0-5.562-1.869-8.166a6.545 6.545 0 00-5.7-2.6 8.589 8.589 0 00-5.006 1.557 13.081 13.081 0 00-3.8 4.205 22.443 22.443 0 00-2.4 6.163 31.69 31.69 0 00-.846 7.431q0 5.563 1.869 8.166a6.592 6.592 0 005.739 2.602zm-1.023 8.455a18.816 18.816 0 01-6.987-1.268 15.609 15.609 0 01-5.562-3.716 17.263 17.263 0 01-3.693-6.007 23.093 23.093 0 01-1.335-8.144 31.259 31.259 0 011.915-11.033 28.4 28.4 0 015.184-8.855 24.213 24.213 0 017.632-5.874 20.866 20.866 0 019.3-2.136 18.99 18.99 0 017.009 1.265 15.353 15.353 0 015.563 3.716 17.441 17.441 0 013.671 6.007 23.093 23.093 0 011.335 8.144 30.947 30.947 0 01-1.909 10.968 28.74 28.74 0 01-5.184 8.855 24.354 24.354 0 01-7.632 5.918 20.689 20.689 0 01-9.305 2.16zm43.3-36.891a24.885 24.885 0 017.7-7.632 16.848 16.848 0 018.722-2.514 11.105 11.105 0 015.118 1.157 9.781 9.781 0 013.738 3.36 14.463 14.463 0 012.069 5.429 23.784 23.784 0 01.067 7.365l-3.428 29.058h-10.991l3.428-29.059q.578-4.45-.445-6.386a3.845 3.845 0 00-3.738-1.936 7.769 7.769 0 00-3.738 1.046 14.574 14.574 0 00-3.694 2.981 23.913 23.913 0 00-3.271 4.628 27.974 27.974 0 00-2.425 6.03l-2.538 22.696H229.09l5.474-45.7h5.566a3.932 3.932 0 012.692.846 3.45 3.45 0 01.957 2.714zm57.494-2.4a9.493 9.493 0 00-4.139.912 11.412 11.412 0 00-3.449 2.559 16.39 16.39 0 00-2.67 3.938 24.349 24.349 0 00-1.8 5.006 73.02 73.02 0 008.878-1.669 22.734 22.734 0 005.184-1.958 5.137 5.137 0 003.026-4.828 3.655 3.655 0 00-.289-1.38 3.527 3.527 0 00-.89-1.268 4.937 4.937 0 00-1.557-.935 6.231 6.231 0 00-2.293-.38zm-12.993 20.023q0 10.769 9.122 10.769a14.122 14.122 0 006.119-1.29 12.389 12.389 0 002.047-1.2q.912-.667 1.691-1.2a13.017 13.017 0 011.535-.912 3.63 3.63 0 011.646-.378 2.237 2.237 0 011.046.267 3.233 3.233 0 01.912.712l2.8 3.382a46.8 46.8 0 01-4.628 4.094 25.636 25.636 0 01-4.628 2.848 21.838 21.838 0 01-4.984 1.646 28.587 28.587 0 01-5.7.534 18.645 18.645 0 01-7.254-1.357 15.94 15.94 0 01-5.562-3.827 17.165 17.165 0 01-3.582-5.963 22.759 22.759 0 01-1.268-7.81 32.221 32.221 0 01.779-7.076 31.631 31.631 0 012.247-6.586 27.929 27.929 0 013.6-5.74 24.515 24.515 0 014.828-4.539 22.185 22.185 0 015.919-2.981 21.885 21.885 0 016.92-1.068 17.541 17.541 0 016.252 1.023 14.13 14.13 0 014.495 2.648 10.761 10.761 0 012.692 3.627 9.6 9.6 0 01.89 3.916 12.734 12.734 0 01-1.224 5.607 11.479 11.479 0 01-4.361 4.539 30.919 30.919 0 01-8.566 3.449 90.269 90.269 0 01-13.8 2.292zm62.968-18.468a3.641 3.641 0 01-.935 1 2.09 2.09 0 01-1.157.289 3.273 3.273 0 01-1.6-.445q-.8-.445-1.847-1a15.224 15.224 0 00-2.4-1 10.4 10.4 0 00-3.226-.445 8.125 8.125 0 00-5.384 1.58 4.95 4.95 0 00-1.869 3.938 3.66 3.66 0 001.313 2.937 12.793 12.793 0 003.315 1.958q2 .845 4.294 1.713a22.041 22.041 0 014.294 2.181 11.1 11.1 0 013.315 3.382 9.775 9.775 0 011.313 5.318 15.513 15.513 0 01-5.073 11.5 18.155 18.155 0 01-5.9 3.56 21.7 21.7 0 01-7.765 1.313 20.629 20.629 0 01-4.183-.423 19.658 19.658 0 01-3.8-1.179 18.217 18.217 0 01-3.226-1.78 13.044 13.044 0 01-2.492-2.225l2.715-4.183a3.587 3.587 0 011.157-1.157 3.149 3.149 0 011.647-.4 2.715 2.715 0 011.691.578q.757.578 1.758 1.268a12.508 12.508 0 002.448 1.268 10.121 10.121 0 003.716.578 9.768 9.768 0 003.226-.49 7.257 7.257 0 002.381-1.335 5.5 5.5 0 001.469-1.958 5.792 5.792 0 00.49-2.358 4.052 4.052 0 00-.757-2.514 6.693 6.693 0 00-2.025-1.735 16.566 16.566 0 00-2.87-1.291q-1.6-.556-3.271-1.179a31.676 31.676 0 01-3.249-1.424 11.694 11.694 0 01-2.848-2.025 9.065 9.065 0 01-2.025-2.981 10.855 10.855 0 01-.757-4.294 15.636 15.636 0 011.157-5.9 14.922 14.922 0 013.374-5.072 16.631 16.631 0 015.5-3.538 19.714 19.714 0 017.5-1.335 19.025 19.025 0 017.74 1.495 17.938 17.938 0 015.652 3.8zm56.47 2.047a8.327 8.327 0 00-3.471-2.314 11.945 11.945 0 00-3.872-.665 8.621 8.621 0 00-5.34 1.825 16 16 0 00-4.116 4.762 25.548 25.548 0 00-2.648 6.608 29.749 29.749 0 00-.935 7.365q0 4.806 1.58 7.142a5.007 5.007 0 004.383 2.336 6.661 6.661 0 003.649-1.224 15.856 15.856 0 003.6-3.382 29.191 29.191 0 003.226-5.1 41.637 41.637 0 002.559-6.319zm14.641-31.105l-8.189 66.126h-5.829a3.245 3.245 0 01-2.826-1.046 4.42 4.42 0 01-.734-2.6l.4-6.363a34.431 34.431 0 01-3.516 4.428 23.336 23.336 0 01-3.916 3.36 18.126 18.126 0 01-4.25 2.136 13.813 13.813 0 01-4.517.757 12.4 12.4 0 01-5.162-1.046 10.494 10.494 0 01-3.96-3.137 14.92 14.92 0 01-2.536-5.3 28.461 28.461 0 01-.89-7.565 35.9 35.9 0 01.8-7.587 36.631 36.631 0 012.27-7.053 33.475 33.475 0 013.493-6.141 25.713 25.713 0 014.517-4.851 20.735 20.735 0 015.318-3.2 15.3 15.3 0 015.852-1.157 13.5 13.5 0 015.563 1.112 13.677 13.677 0 014.361 3.07l2.982-23.941zm25.854 27.5a9.492 9.492 0 00-4.138.912 11.412 11.412 0 00-3.449 2.559 16.39 16.39 0 00-2.67 3.938 24.347 24.347 0 00-1.8 5.006 73.021 73.021 0 008.878-1.669 22.734 22.734 0 005.184-1.958 5.137 5.137 0 003.026-4.828 3.655 3.655 0 00-.289-1.38 3.527 3.527 0 00-.89-1.268 4.938 4.938 0 00-1.558-.935 6.231 6.231 0 00-2.294-.377zm-12.994 20.026q0 10.769 9.122 10.769a14.122 14.122 0 006.119-1.29 12.389 12.389 0 002.047-1.2q.912-.667 1.691-1.2a13.019 13.019 0 011.535-.912 3.63 3.63 0 011.647-.378 2.237 2.237 0 011.046.267 3.233 3.233 0 01.912.712l2.8 3.382a46.807 46.807 0 01-4.628 4.094 25.638 25.638 0 01-4.628 2.848 21.839 21.839 0 01-4.984 1.646 28.587 28.587 0 01-5.7.534 18.645 18.645 0 01-7.254-1.357 15.94 15.94 0 01-5.562-3.827 17.165 17.165 0 01-3.58-5.968 22.759 22.759 0 01-1.268-7.81 32.221 32.221 0 01.779-7.076 31.631 31.631 0 012.247-6.586 27.927 27.927 0 013.6-5.74 24.515 24.515 0 014.828-4.539 22.185 22.185 0 015.918-2.981 21.885 21.885 0 016.92-1.068 17.541 17.541 0 016.252 1.023 14.13 14.13 0 014.494 2.648 10.761 10.761 0 012.692 3.627 9.6 9.6 0 01.89 3.916 12.734 12.734 0 01-1.224 5.607 11.479 11.479 0 01-4.361 4.539 30.919 30.919 0 01-8.566 3.449 90.268 90.268 0 01-13.795 2.292z" stroke-width="3.991" stroke="#fff" fill="#fff"/></g><path fill="#fdea14" d="M482.822 134.494h238.906v98.427H482.822z"/><path class="e" d="M696.842 182.421l-1.958 10.2c-.316 1.645-1.272 4.4-4.122 4.4a2.5 2.5 0 01-2.014-.712c-.513-.621-.631-1.745-.341-3.252l1.943-10.12c.28-1.462 1.259-4.861 4.275-4.861a2.053 2.053 0 011.665.734 4.436 4.436 0 01.551 3.611m12.864-12.045c-2.711-3.281-7.369-5.088-13.116-5.088-8.445 0-19.23 4.806-21.829 18.35l-1.608 8.37c-1.047 5.455-.3 9.766 2.214 12.81 3.354 4.061 9.019 4.913 13.181 4.913 8.536 0 19.386-4.587 21.867-17.512l1.65-8.6c1.075-5.593.281-10.049-2.359-13.245"/><path class="e" d="M694.625 178.371c-2.8 0-3.718 3.231-3.986 4.62l-1.943 10.12a3.857 3.857 0 00.277 3.008 2.227 2.227 0 001.787.606c2.638 0 3.533-2.609 3.832-4.164l1.958-10.2a4.153 4.153 0 00-.489-3.366 1.746 1.746 0 00-1.437-.628m-3.864 18.945a2.762 2.762 0 01-2.242-.82c-.57-.689-.71-1.9-.4-3.5l1.943-10.12c.295-1.533 1.329-5.1 4.566-5.1a2.335 2.335 0 011.892.842 4.722 4.722 0 01.614 3.854l-1.958 10.2c-.333 1.734-1.348 4.643-4.412 4.643m5.828-31.732c-8.333 0-18.973 4.742-21.539 18.11l-1.608 8.37c-1.031 5.364-.307 9.592 2.151 12.567 3.282 3.972 8.855 4.805 12.953 4.805 8.424 0 19.129-4.524 21.576-17.272l1.652-8.6c1.056-5.5.283-9.876-2.3-13-2.654-3.212-7.231-4.98-12.888-4.98m-8.042 44.443c-4.225 0-9.98-.872-13.409-5.02-2.575-3.118-3.341-7.509-2.276-13.055l1.608-8.37c2.634-13.721 13.561-18.589 22.12-18.589 5.836 0 10.575 1.845 13.343 5.2 2.7 3.267 3.514 7.8 2.424 13.488l-1.652 8.6c-2.516 13.1-13.509 17.752-22.158 17.752M655.029 188.488c-1.569 8.168-4.1 9.269-6.372 9.269a4.244 4.244 0 01-2.074-.432l3.135-16.322a9.306 9.306 0 012.613-.509 2.867 2.867 0 012.4.841c.9 1.088 1 3.494.3 7.152m14.917-18.379c-1.856-2.246-4.559-3.385-8.033-3.385a15.916 15.916 0 00-10.178 3.778l1.31-6.827c.794-4.129 1.006-6.629-.14-8.015-.913-1.106-2.505-1.259-4.09-1.259h-10.469l-10.519 54.771h9.556c1.823 0 3.575-1.2 5.335-3.656 1.953 3.007 4.967 4.418 9.38 4.418 4.636 0 15.844-2.2 19.761-22.6 1.54-8.023.894-13.817-1.918-17.221"/><path class="e" d="M646.913 197.16a4.243 4.243 0 001.741.3c2.15 0 4.554-1.072 6.082-9.029.853-4.444.343-6.21-.234-6.908a2.6 2.6 0 00-2.174-.734 8.454 8.454 0 00-2.356.443zm1.741.894a4.506 4.506 0 01-2.214-.469l-.19-.1 3.208-16.708.168-.052a9.228 9.228 0 012.7-.522 3.128 3.128 0 012.63.949c.969 1.174 1.088 3.593.358 7.4-1.61 8.379-4.271 9.51-6.662 9.51m-5.922 6.936l.235.363c1.9 2.922 4.8 4.283 9.132 4.283 4.563 0 15.6-2.179 19.471-22.361 1.523-7.932.9-13.645-1.855-16.978-1.8-2.174-4.424-3.277-7.806-3.277a15.639 15.639 0 00-9.991 3.713l-.628.506 1.461-7.619c.776-4.04.994-6.476-.077-7.771-.836-1.011-2.35-1.151-3.862-1.151h-10.225l-10.4 54.178h9.2c1.727 0 3.393-1.155 5.1-3.533zm9.367 5.236c-4.377 0-7.373-1.337-9.389-4.2-1.739 2.313-3.483 3.439-5.326 3.439h-9.913l10.63-55.36h10.712c1.657 0 3.327.165 4.319 1.366 1.218 1.476 1.011 4.04.2 8.258l-1.163 6.058a16.034 16.034 0 019.739-3.36c3.567 0 6.346 1.175 8.262 3.492 2.871 3.476 3.537 9.352 1.98 17.465-3.958 20.615-15.342 22.84-20.051 22.84M616.661 167.53l-5.436 28.309a9.727 9.727 0 01-2.452.368c-1.433 0-2.221-.18-2.554-.584a2.789 2.789 0 01-.146-2.162l4.98-25.931H594.64l-5.6 29.142c-.905 4.715-.44 8.225 1.385 10.433 1.532 1.855 4.013 2.8 7.373 2.8 5.01 0 8.906-2.378 12.326-5.2 0 1.769.308 2.88.959 3.584a3.665 3.665 0 002.844.935h11.139l8-41.686z"/><path class="e" d="M594.88 167.825l-5.549 28.9c-.888 4.624-.444 8.052 1.321 10.188 1.473 1.784 3.878 2.689 7.146 2.689 5.249 0 9.244-2.745 12.137-5.136l.482-.4v.625a4.917 4.917 0 00.88 3.385 3.414 3.414 0 002.628.839h10.894l7.89-41.094h-15.81l-5.424 28.249-.177.048a9.955 9.955 0 01-2.532.378c-1.549 0-2.38-.207-2.781-.692a2.975 2.975 0 01-.209-2.4l4.912-25.58zm2.919 42.37c-3.453 0-6.01-.977-7.6-2.9-1.883-2.279-2.369-5.871-1.446-10.676l5.641-29.381h17.014l-5.046 26.281c-.246 1.282-.053 1.752.083 1.917.266.321 1.027.477 2.326.477a9.333 9.333 0 002.2-.308l5.446-28.367h17.015l-8.118 42.277h-11.382a3.93 3.93 0 01-3.062-1.03 4.792 4.792 0 01-1.022-3.174c-2.928 2.355-6.888 4.888-12.044 4.888M588.34 169.34c-1.434-1.735-3.766-2.616-6.932-2.616-4.214 0-8.237 1.565-12.244 4.773l1.5-7.821c.793-4.129 1.005-6.629-.14-8.014-.914-1.107-2.506-1.259-4.09-1.259h-10.468l-10.516 54.768h16.479l5.371-27.973a12.066 12.066 0 012.578-.323c1.393 0 2.143.156 2.432.506.268.325.3 1.027.1 2.088l-4.935 25.7h16.411l5.742-29.9c.877-4.571.456-7.819-1.287-9.929"/><path class="e" d="M567.834 208.876h15.81l5.7-29.663c.859-4.479.459-7.647-1.224-9.685-1.375-1.664-3.631-2.508-6.705-2.508-4.157 0-8.1 1.54-12.058 4.707l-.626.5 1.653-8.608c.776-4.04.993-6.476-.077-7.77-.837-1.012-2.351-1.151-3.862-1.151H556.22l-10.4 54.177h15.878l5.362-27.924.189-.042a12.407 12.407 0 012.642-.33c1.509 0 2.3.183 2.66.613.332.4.384 1.163.161 2.331zm16.3.59H567.12l5-26.053c.254-1.319.061-1.729-.034-1.844-.219-.264-.96-.4-2.2-.4a11.5 11.5 0 00-2.325.274l-5.38 28.021h-17.08l.067-.351 10.562-55.007h10.713c1.656 0 3.325.165 4.317 1.365 1.219 1.476 1.012 4.041.2 8.258l-1.354 7.049a19.188 19.188 0 0111.8-4.351c3.259 0 5.668.916 7.16 2.722 1.8 2.181 2.244 5.509 1.349 10.172zM545.526 173.395l6.489-8.454 2.023-10.537h-11.753l-2.241 11.67h3.167l-4.288 7.321z"/><path class="e" d="M539.438 173.099h5.944l6.358-8.283 1.943-10.117h-11.154l-2.128 11.077h3.325zm6.236.59h-7.267l4.288-7.321h-3.005l2.354-12.262h12.357l-2.1 10.957z"/><g><path class="e" d="M520.432 189.088c-.505 3.62-3.356 6.564-6.354 6.564a4.13 4.13 0 01-2.078-.559 3.462 3.462 0 01-1.923-2.393 6.909 6.909 0 01-.339-3.4l2.056-14.727a8.487 8.487 0 011.416-3.613c.052-.083.112-.159.17-.234l.1-.125c.079-.1.158-.2.279-.347.107-.123.211-.248.344-.374a5.8 5.8 0 014.049-1.871 4.01 4.01 0 013.1 1.42 6.187 6.187 0 011.235 4.937zm-.7-35.017c-9.652 0-21.7 5.537-23.876 21.144l-1.884 13.492c-.943 6.754.183 12.022 3.345 15.657s8.352 5.548 15.02 5.548c4.391 0 8.206-.546 12.429-3.16l4.864 3.526 8.412-9.847-4.36-2.746a28.321 28.321 0 002.713-8.843l1.874-13.419c.937-6.707-.217-11.979-3.428-15.671-4.084-4.695-10.471-5.681-15.108-5.681"/><path class="e" d="M518.148 168.295a5.508 5.508 0 00-3.84 1.785 4.194 4.194 0 00-.3.323 7.447 7.447 0 00-.3.371l-.095.124c-.068.088-.114.146-.157.212a8.251 8.251 0 00-1.373 3.5l-2.056 14.726a6.611 6.611 0 00.323 3.26 3.2 3.2 0 001.769 2.231 3.9 3.9 0 001.959.533c2.857 0 5.579-2.832 6.066-6.313l2.056-14.726a5.894 5.894 0 00-1.167-4.705 3.727 3.727 0 00-2.885-1.32m-4.07 27.647a4.425 4.425 0 01-2.221-.6 3.751 3.751 0 01-2.06-2.566 7.188 7.188 0 01-.348-3.527l2.056-14.726a8.819 8.819 0 011.464-3.737 2.728 2.728 0 01.161-.222l.114-.151c.083-.106.164-.211.289-.358a5.379 5.379 0 01.365-.4 6.076 6.076 0 014.249-1.951 4.291 4.291 0 013.325 1.52 6.469 6.469 0 011.3 5.168l-2.056 14.726c-.525 3.759-3.505 6.816-6.643 6.816m10.695 10.455l4.813 3.491 8.017-9.385-4.3-2.707.119-.237a28.024 28.024 0 002.684-8.752l1.874-13.418c.925-6.62-.2-11.814-3.358-15.44-4.012-4.612-10.312-5.58-14.889-5.58-9.535 0-21.434 5.471-23.587 20.891l-1.883 13.492c-.931 6.667.171 11.856 3.276 15.424s8.218 5.448 14.8 5.448c4.344 0 8.1-.531 12.274-3.117zm4.9 4.272l-4.926-3.57c-4.229 2.571-8.028 3.1-12.415 3.1-6.756 0-12.026-1.953-15.241-5.648s-4.369-9.048-3.414-15.888l1.884-13.492c2.2-15.792 14.4-21.394 24.165-21.394 4.7 0 11.172 1 15.329 5.781 3.27 3.758 4.445 9.108 3.5 15.9l-1.869 13.43a28.716 28.716 0 01-2.623 8.7l4.422 2.785z"/><path class="f" d="M707.156 191.257l1.651-8.6c2.542-13.241-6.188-17.426-14.728-17.426-8.74 0-18.671 5.175-21.081 17.731l-1.607 8.37c-2.543 13.241 6.238 16.817 14.646 16.817 8.21 0 18.693-4.261 21.119-16.893m-14.034.684c-.54 2.816-2.09 5.023-4.87 5.023-2.848 0-3.674-1.9-3.1-4.87l1.943-10.121c.584-3.044 2.244-5.479 5.025-5.479 2.382 0 3.533 2.283 2.963 5.251zM649.818 178.915c2.945 0 4.862 1.521 3.446 8.9-1.563 8.139-4.175 9.889-7.12 9.889a4.539 4.539 0 01-2.918-.836l3.31-17.268a10.905 10.905 0 013.277-.685m-1.773-7.149l1.738-9.052c1.358-7.074.736-8.367-3.481-8.367h-9.839l-10.222 53.243h8.634c1.808 0 3.558-1.445 5.385-4.336 1.7 3.346 4.51 5.1 9.329 5.1 8.568 0 16.136-7 19.013-21.981 2.921-15.214-2.576-19.7-9.2-19.7a15.875 15.875 0 00-11.353 5.1M629.637 167.474h-14.86l-5.4 28.143a10.681 10.681 0 01-3.114.533c-2.744 0-4.032-.609-3.448-3.652l4.805-25.024h-14.86l-5.477 28.523c-1.825 9.508 2.253 12.321 8.01 12.321 5.422 0 9.538-2.966 13.164-6.16-.385 4.792.689 5.477 2.964 5.477h10.5zM565.496 172.677l1.913-9.965c1.358-7.074.737-8.366-3.481-8.366h-9.839l-10.223 53.244h14.926l5.346-27.84a13.872 13.872 0 013.233-.456c2.745 0 3.847.533 3.278 3.5l-4.761 24.8h14.858l5.622-29.284c1.709-8.9-1.915-11.638-7.47-11.638-5.422 0-9.83 2.739-13.4 6.01"/></g><path class="f" d="M537.742 171.814h4.9l6.151-8.013 1.815-9.454h-10.205l-1.948 10.146h3.573z"/><g><path class="f" d="M530.177 197.149a27.172 27.172 0 002.954-9.215l1.874-13.418c2.152-15.408-7.337-20.494-17.791-20.494-10.583 0-21.144 6.266-23.13 20.494l-1.884 13.487c-2.162 15.481 7.1 20.348 17.618 20.348 4.683 0 8.367-.664 12.458-3.318l4.716 3.418 7.394-8.655zm-11.512-8.76c-.556 3.984-3.735 7.214-7.1 7.214a4.782 4.782 0 01-2.385-.625 4.166 4.166 0 01-2.32-2.813 7.629 7.629 0 01-.38-3.776l2.056-14.726a9.189 9.189 0 011.523-3.909c.1-.152.206-.281.309-.421.087-.111.173-.223.264-.33.136-.158.272-.319.42-.46a6.572 6.572 0 014.583-2.093c3.365 0 5.643 3.23 5.086 7.213z"/><path class="g" d="M692.115 176.79c-3.364 0-4.432 3.664-4.734 5.239l-1.943 10.121c-.322 1.672-.174 2.9.439 3.637a2.926 2.926 0 002.374.881c3.185 0 4.238-3 4.58-4.782l1.959-10.2a4.88 4.88 0 00-.65-3.995 2.53 2.53 0 00-2.024-.9m-3.864 20.469a3.478 3.478 0 01-2.83-1.1c-.73-.884-.919-2.271-.564-4.125l1.943-10.12c.688-3.58 2.675-5.718 5.314-5.718a3.1 3.1 0 012.48 1.119 5.452 5.452 0 01.775 4.483l-1.958 10.2c-.641 3.344-2.523 5.261-5.16 5.261m5.828-31.732c-8.042 0-18.312 4.582-20.79 17.492l-1.608 8.37c-.985 5.13-.316 9.147 1.99 11.939 3.092 3.742 8.432 4.528 12.365 4.528 8.524 0 18.472-4.375 20.829-16.654l1.651-8.6c1.012-5.269.293-9.431-2.138-12.371-2.506-3.033-6.874-4.7-12.3-4.7m-8.042 42.919c-4.061 0-9.582-.823-12.821-4.743-2.424-2.932-3.135-7.114-2.115-12.426l1.608-8.37c2.547-13.264 13.1-17.971 21.371-17.971 5.606 0 10.135 1.747 12.756 4.918 2.547 3.083 3.308 7.41 2.262 12.86l-1.651 8.6c-2.429 12.647-13.051 17.133-21.41 17.133M643.55 196.736a4.379 4.379 0 002.592.671c2.462 0 5.2-1.147 6.83-9.649.74-3.855.612-6.321-.394-7.537a3.316 3.316 0 00-2.761-1.011 10.41 10.41 0 00-3.02.615zm2.592 1.261a4.873 4.873 0 01-3.1-.9l-.146-.111 3.383-17.616.164-.055a11.2 11.2 0 013.37-.7 3.857 3.857 0 013.217 1.225c1.14 1.38 1.305 3.931.518 8.026-1.362 7.1-3.579 10.128-7.41 10.128m-5.856 4.66l.235.463c1.734 3.413 4.53 4.935 9.066 4.935 9.246 0 16.07-7.925 18.723-21.742 1.478-7.7.908-13.2-1.694-16.348a8.864 8.864 0 00-7.219-3c-4.051 0-7.8 1.685-11.145 5.01l-.678.675 1.918-9.992c.823-4.284.845-6.219.084-7.141-.514-.621-1.463-.875-3.275-.875h-9.6l-10.1 52.655h8.276c1.67 0 3.349-1.373 5.136-4.2zm9.3 5.988c-4.522 0-7.509-1.532-9.354-4.81-1.805 2.724-3.563 4.05-5.361 4.05h-8.992l10.337-53.836h10.083c1.47 0 2.938.132 3.73 1.089 1.027 1.243.807 3.641.04 7.629l-1.563 8.145a15.843 15.843 0 0110.888-4.541c3.329 0 5.911 1.082 7.673 3.217 2.721 3.292 3.332 8.956 1.82 16.836-3.851 20.056-14.782 22.221-19.3 22.221M592.999 167.769l-5.43 28.283c-.843 4.391-.453 7.607 1.162 9.56 1.322 1.6 3.528 2.412 6.557 2.412 5.326 0 9.381-2.926 12.969-6.088l.548-.484-.059.728c-.2 2.489-.014 3.9.6 4.564a2.615 2.615 0 002.068.594h10.264l7.6-39.57h-14.257l-5.39 28.074-.166.054a10.927 10.927 0 01-3.206.547c-1.334 0-2.666-.117-3.369-.968-.527-.637-.644-1.6-.37-3.034l4.738-24.673zm2.289 40.845c-3.214 0-5.574-.884-7.014-2.626-1.731-2.095-2.163-5.475-1.285-10.047l5.523-28.763h15.462l-4.873 25.376a3.112 3.112 0 00.246 2.547c.436.528 1.307.753 2.913.753a10.212 10.212 0 002.857-.466l5.417-28.21h15.461l-7.825 40.752h-10.756a3.216 3.216 0 01-2.5-.785c-.68-.736-.929-2.04-.806-4.3-3.544 3.053-7.567 5.766-12.822 5.766M566.246 207.294h14.258l5.577-29.045c.8-4.182.445-7.229-1.063-9.055-1.241-1.5-3.241-2.231-6.117-2.231-4.524 0-8.843 1.94-13.2 5.931l-.658.6 2.081-10.84c.823-4.284.845-6.22.084-7.141-.513-.621-1.461-.875-3.275-.875h-9.6l-10.109 52.656h14.325l5.335-27.784.183-.045a13.918 13.918 0 013.3-.465c1.509 0 2.638.151 3.248.889.5.6.6 1.517.321 2.961zm14.746.59h-15.461l4.828-25.147c.238-1.238.177-2.024-.195-2.473-.4-.48-1.205-.675-2.793-.675a13 13 0 00-2.978.4l-5.356 27.892h-15.528l10.336-53.834h10.083c1.47 0 2.939.131 3.73 1.089 1.027 1.242.806 3.64.041 7.628l-1.748 9.107c4.255-3.7 8.5-5.5 12.948-5.5 3.063 0 5.213.8 6.573 2.446 1.627 1.968 2.026 5.179 1.188 9.543z"/></g><path class="g" d="M538.257 171.518h4.239l6.019-7.841 1.735-9.034h-9.6l-1.835 9.555h3.732zm4.53.591h-5.56l4.287-7.321h-3.416l2.061-10.737h10.808l-1.9 9.874z"/><g><path class="g" d="M515.637 166.742a6.247 6.247 0 00-4.375 2.008 5.15 5.15 0 00-.372.4c-.123.143-.206.251-.289.359l-.094.123c-.068.088-.137.176-.2.274a8.919 8.919 0 00-1.481 3.794l-2.056 14.726a7.372 7.372 0 00.365 3.633 3.913 3.913 0 002.166 2.65 4.52 4.52 0 002.265.6c3.22 0 6.275-3.123 6.811-6.962l2.056-14.726a6.639 6.639 0 00-1.345-5.3 4.517 4.517 0 00-3.452-1.578m-4.07 29.154a5.055 5.055 0 01-2.528-.662 4.433 4.433 0 01-2.456-2.985 7.933 7.933 0 01-.39-3.9l2.057-14.726a9.477 9.477 0 011.571-4.034 3.511 3.511 0 01.226-.311l.09-.118c.093-.12.182-.235.276-.346.167-.194.3-.346.442-.482a6.817 6.817 0 014.784-2.174 5.1 5.1 0 013.893 1.779 7.221 7.221 0 011.482 5.767l-2.057 14.726-.289-.04.289.04c-.574 4.117-3.889 7.465-7.389 7.465m5.649-41.582c-9.232 0-20.754 5.3-22.841 20.244l-1.883 13.491c-.9 6.442.143 11.43 3.1 14.827s7.874 5.188 14.231 5.188c4.357 0 8.114-.556 12.3-3.27l.168-.109 4.66 3.377 7-8.194-4.154-2.616.129-.24a26.712 26.712 0 002.918-9.115l1.874-13.418c.894-6.4-.177-11.388-3.181-14.841-3.827-4.4-9.9-5.322-14.321-5.322m9.826 54.537l-4.773-3.458c-4.237 2.7-8.045 3.255-12.447 3.255-6.531 0-11.6-1.863-14.672-5.389s-4.16-8.674-3.237-15.29l1.884-13.492c2.138-15.313 13.952-20.746 23.419-20.746 4.543 0 10.79.959 14.761 5.523 3.12 3.585 4.237 8.734 3.319 15.3l-1.874 13.418a27.75 27.75 0 01-2.859 9.072l4.266 2.686z"/></g></g><g transform="translate(.002 .001)" filter="url(#c)"><path d="M98.574 308.527l-22.275 43.164a3.07 3.07 0 01-2.871 1.848H66.63l7.66-13.794-8.518-31.218h7.656a2.017 2.017 0 011.485.495 2.714 2.714 0 01.693 1.155l3.6 16.269q.2.891.33 1.782t.231 1.782q.363-.891.775-1.8t.842-1.8l7.425-16.269a3.115 3.115 0 011.056-1.155 2.53 2.53 0 011.419-.462zm34.056 5.874a5.376 5.376 0 00-.594-.033h-.594a10.085 10.085 0 00-4.852 1.188 12.037 12.037 0 00-3.81 3.234 15.781 15.781 0 00-2.508 4.752 17.835 17.835 0 00-.908 5.709 8.983 8.983 0 001.056 4.967 3.226 3.226 0 002.77 1.532 4.058 4.058 0 002.426-.891 9.971 9.971 0 002.26-2.442 21.253 21.253 0 001.947-3.646 36.134 36.134 0 001.551-4.472zm-2.24 21.749a18.939 18.939 0 01-4.867 5.049 10.235 10.235 0 01-5.933 1.851 8.848 8.848 0 01-3.581-.743 8.269 8.269 0 01-2.986-2.244 10.927 10.927 0 01-2.029-3.795 17.447 17.447 0 01-.743-5.363 23.332 23.332 0 01.759-5.957 23.159 23.159 0 012.18-5.432 22.979 22.979 0 013.449-4.67 22.139 22.139 0 014.521-3.646 22.114 22.114 0 015.412-2.359 22.122 22.122 0 016.154-.842 32.888 32.888 0 014.752.347 22.931 22.931 0 014.689 1.204l-4.092 33h-4.851a3.885 3.885 0 01-1.434-.231 2.371 2.371 0 01-.924-.627 2.187 2.187 0 01-.479-.924 4.758 4.758 0 01-.132-1.155zm37.785-19.536a6.088 6.088 0 00-2.393-1.4 8.766 8.766 0 00-2.59-.412 5.816 5.816 0 00-3.63 1.271 11.169 11.169 0 00-2.842 3.327 18.27 18.27 0 00-1.848 4.686 21.63 21.63 0 00-.66 5.3 9.356 9.356 0 001.056 5.016 3.324 3.324 0 002.937 1.617 4.429 4.429 0 002.475-.875 11.181 11.181 0 002.475-2.394 21.775 21.775 0 002.228-3.564 27.9 27.9 0 001.766-4.389zm11.81-23.264l-6.105 49.2h-4.851a3.885 3.885 0 01-1.439-.231 2.23 2.23 0 01-.907-.627 2.289 2.289 0 01-.462-.924 4.757 4.757 0 01-.132-1.155l.165-3.861a20.434 20.434 0 01-5.364 5.346 11.225 11.225 0 01-6.282 1.952 9.6 9.6 0 01-3.861-.759 7.644 7.644 0 01-2.987-2.332 11.259 11.259 0 01-1.914-3.977 21.271 21.271 0 01-.676-5.709 26.538 26.538 0 01.611-5.693 27.056 27.056 0 011.716-5.264 24.384 24.384 0 012.64-4.554 19.8 19.8 0 013.366-3.58 14.978 14.978 0 013.927-2.343 11.541 11.541 0 014.34-.842 10.1 10.1 0 013.993.759 10.129 10.129 0 013.135 2.079l2.178-17.49zm23.265 21.051q-.33-.033-.627-.033h-.561a10.085 10.085 0 00-4.851 1.188 12.037 12.037 0 00-3.811 3.234 15.781 15.781 0 00-2.508 4.752 17.835 17.835 0 00-.908 5.709 9.1 9.1 0 001.039 4.967 3.213 3.213 0 002.789 1.532 3.989 3.989 0 002.409-.891 10.534 10.534 0 002.26-2.426 19.484 19.484 0 001.947-3.613 37.082 37.082 0 001.535-4.455zm-2.9 22.671a17.1 17.1 0 01-4.6 4.389 10.2 10.2 0 01-5.535 1.589 8.848 8.848 0 01-3.58-.743 8.269 8.269 0 01-2.987-2.244 10.927 10.927 0 01-2.029-3.795 17.447 17.447 0 01-.743-5.363 23.332 23.332 0 01.759-5.957 23.159 23.159 0 012.178-5.428 22.979 22.979 0 013.449-4.67 22.139 22.139 0 014.521-3.646 22.114 22.114 0 015.412-2.359 22.122 22.122 0 016.154-.842 32.888 32.888 0 014.752.347 22.931 22.931 0 014.689 1.2l-5.511 43.989h-5.94a2.787 2.787 0 01-1.4-.314 2.486 2.486 0 01-.858-.792 2.564 2.564 0 01-.4-1.056 4.153 4.153 0 01-.017-1.105zm48.411-28.545l-4.129 34.023h-4.62q-3.234 0-3.234-3.069l.1-3.069a17.506 17.506 0 01-5.462 5 12.487 12.487 0 01-6.126 1.638 8.514 8.514 0 01-3.861-.858 7.391 7.391 0 01-2.839-2.513 10.728 10.728 0 01-1.584-4.043 17.463 17.463 0 01-.066-5.495l2.55-21.614h9.1l-2.57 21.615a7.955 7.955 0 00.314 4.34 2.535 2.535 0 002.456 1.268 5.223 5.223 0 002.459-.676 9.464 9.464 0 002.441-1.929 16.029 16.029 0 002.178-3.019 19.147 19.147 0 001.667-3.943l2.145-17.655zm16.3 0L261 342.55h-8.976l4.059-34.023zm1.98-9.669a4.864 4.864 0 01-.479 2.145 6.206 6.206 0 01-1.254 1.749 5.745 5.745 0 01-1.782 1.188 5.213 5.213 0 01-2.062.429 4.98 4.98 0 01-2.03-.429 5.457 5.457 0 01-1.716-1.188 6 6 0 01-1.188-1.749 5.166 5.166 0 01-.445-2.145 5.043 5.043 0 01.462-2.128 6.2 6.2 0 011.2-1.765 5.694 5.694 0 011.716-1.2 4.824 4.824 0 012.029-.445 5.291 5.291 0 012.1.429 5.547 5.547 0 011.766 1.188 6.031 6.031 0 011.221 1.766 5.119 5.119 0 01.46 2.155zm19.173 15.444a6.311 6.311 0 00-2.739.611 7.73 7.73 0 00-2.326 1.716 11.443 11.443 0 00-1.831 2.656 16.909 16.909 0 00-1.287 3.465 51.993 51.993 0 005.924-1.139 15.225 15.225 0 003.5-1.32 3.957 3.957 0 001.65-1.535 3.929 3.929 0 00.412-1.782 2.448 2.448 0 00-.2-.941 2.512 2.512 0 00-.594-.858 3.107 3.107 0 00-1.026-.625 4.037 4.037 0 00-1.485-.248zm-8.91 14.289q0 7.557 6.369 7.557a9.247 9.247 0 003.449-.545 12.7 12.7 0 002.293-1.188l1.766-1.188a3.259 3.259 0 011.865-.545 1.869 1.869 0 01.874.215 2.656 2.656 0 01.743.578l2.307 2.775a33.464 33.464 0 01-3.465 3.053 19.221 19.221 0 01-3.5 2.112 16.842 16.842 0 01-3.793 1.235 22.251 22.251 0 01-4.356.4 14.209 14.209 0 01-5.478-1.023 12.155 12.155 0 01-4.241-2.888 13.028 13.028 0 01-2.739-4.489 16.734 16.734 0 01-.973-5.858 23.405 23.405 0 01.594-5.28 22.951 22.951 0 011.716-4.884 20.969 20.969 0 012.723-4.241 17.764 17.764 0 013.646-3.333 17.432 17.432 0 014.471-2.194 16.537 16.537 0 015.165-.792 13.4 13.4 0 014.735.776 10.845 10.845 0 013.449 2.013 8.543 8.543 0 012.1 2.756 7.117 7.117 0 01.71 3.036 9.512 9.512 0 01-.924 4.191 8.7 8.7 0 01-3.234 3.416 22.346 22.346 0 01-6.27 2.574 62.642 62.642 0 01-10 1.667zm35.046-12.474a23.453 23.453 0 012.722-4.059 12.508 12.508 0 012.987-2.624 7.373 7.373 0 013.168-1.089 6.536 6.536 0 013.267.577l-1.65 8.547a7.793 7.793 0 00-3.647-.693 5.51 5.51 0 00-3.135 1.32 10.715 10.715 0 00-2.59 3.465 27.384 27.384 0 00-2.013 5.742l-1.85 15.247h-8.943l4.124-34.056h4.686a3.248 3.248 0 012.211.693 2.793 2.793 0 01.792 2.211zm29.24-1.815a6.311 6.311 0 00-2.739.611 7.729 7.729 0 00-2.326 1.716 11.442 11.442 0 00-1.832 2.656 16.909 16.909 0 00-1.287 3.465 51.992 51.992 0 005.923-1.139 15.225 15.225 0 003.5-1.32 3.957 3.957 0 001.65-1.535 3.929 3.929 0 00.413-1.782 2.448 2.448 0 00-.2-.941 2.511 2.511 0 00-.594-.858 3.107 3.107 0 00-1.027-.625 4.037 4.037 0 00-1.481-.248zm-8.91 14.289q0 7.557 6.369 7.557a9.247 9.247 0 003.449-.545 12.7 12.7 0 002.292-1.188l1.766-1.188a3.259 3.259 0 011.865-.545 1.869 1.869 0 01.875.215 2.656 2.656 0 01.742.578l2.31 2.772a33.467 33.467 0 01-3.465 3.053 19.222 19.222 0 01-3.5 2.112 16.842 16.842 0 01-3.793 1.238 22.251 22.251 0 01-4.356.4 14.209 14.209 0 01-5.478-1.023 12.154 12.154 0 01-4.24-2.888 13.028 13.028 0 01-2.744-4.489 16.734 16.734 0 01-.974-5.858 23.4 23.4 0 01.594-5.28 22.951 22.951 0 011.716-4.884 20.971 20.971 0 012.723-4.241 17.765 17.765 0 013.647-3.333 17.432 17.432 0 014.471-2.194 16.537 16.537 0 015.164-.792 13.4 13.4 0 014.736.776 10.845 10.845 0 013.449 2.013 8.543 8.543 0 012.1 2.756 7.117 7.117 0 01.71 3.036 9.512 9.512 0 01-.924 4.191 8.7 8.7 0 01-3.234 3.416 22.346 22.346 0 01-6.27 2.574 62.642 62.642 0 01-10 1.667zm40.227 6.831v-.545q0-.313.049-.924t.165-1.617q.115-1.006.313-2.624l1.815-14.652h-2.97a1.37 1.37 0 01-1.072-.462 1.656 1.656 0 01-.281-1.386l.429-3.564 5.148-.99 2.805-8.811a1.929 1.929 0 012.013-1.485h4.884l-1.287 10.362h7.953l-.759 6.336h-7.953l-1.749 14.157q-.165 1.353-.264 2.145t-.156 1.222q-.049.429-.049.578v.214a2.9 2.9 0 00.528 1.832 1.885 1.885 0 001.584.676 3.138 3.138 0 001.023-.148 4.28 4.28 0 00.742-.33q.314-.182.578-.33a1.127 1.127 0 01.561-.148.908.908 0 01.627.181 1.943 1.943 0 01.4.611l1.98 4.356a14.028 14.028 0 01-4.191 2.244 14.424 14.424 0 01-4.583.758 8.43 8.43 0 01-5.956-2.03 7.692 7.692 0 01-2.331-5.626zm54.549-26.895l-4.129 34.023h-4.62q-3.234 0-3.234-3.069l.1-3.069a17.505 17.505 0 01-5.462 5 12.487 12.487 0 01-6.121 1.638 8.514 8.514 0 01-3.861-.858 7.391 7.391 0 01-2.839-2.513 10.729 10.729 0 01-1.584-4.043 17.462 17.462 0 01-.066-5.495l2.541-21.615h9.109l-2.574 21.615a7.955 7.955 0 00.313 4.34 2.535 2.535 0 002.461 1.269 5.223 5.223 0 002.458-.676 9.464 9.464 0 002.442-1.929 16.028 16.028 0 002.178-3.019 19.147 19.147 0 001.667-3.943l2.145-17.655zm25.934 6.732a3.051 3.051 0 01-.776.809 1.686 1.686 0 01-.94.247 2.577 2.577 0 01-1.237-.33q-.611-.33-1.37-.709a13.773 13.773 0 00-1.733-.709 7.158 7.158 0 00-2.293-.33 5.462 5.462 0 00-3.68 1.056 3.366 3.366 0 00-1.2 2.64 2.521 2.521 0 00.957 2.063 9.917 9.917 0 002.409 1.386q1.452.611 3.135 1.238a14.572 14.572 0 013.135 1.617 8.319 8.319 0 012.409 2.541 7.435 7.435 0 01.957 3.96 11.643 11.643 0 01-.99 4.752 11.491 11.491 0 01-2.854 3.927 13.944 13.944 0 01-4.5 2.673 16.719 16.719 0 01-5.907.99 15.705 15.705 0 01-3.152-.313 15.373 15.373 0 01-2.9-.891 13.9 13.9 0 01-2.475-1.337 9.466 9.466 0 01-1.865-1.65l2.244-3.4a2.942 2.942 0 01.957-.924 2.624 2.624 0 011.353-.33 2.262 2.262 0 011.32.412q.594.413 1.32.891a10.142 10.142 0 001.733.891 7.012 7.012 0 002.624.413 6.829 6.829 0 002.161-.313 4.744 4.744 0 001.584-.858 3.439 3.439 0 00.957-1.27 3.79 3.79 0 00.314-1.518 2.749 2.749 0 00-.957-2.244 9.318 9.318 0 00-2.392-1.386q-1.436-.594-3.118-1.155a13.009 13.009 0 01-3.118-1.518 8.164 8.164 0 01-2.393-2.475 7.54 7.54 0 01-.957-4.059 11.816 11.816 0 01.875-4.472 11.479 11.479 0 012.557-3.844 12.566 12.566 0 014.174-2.706 15.072 15.072 0 015.759-1.023 14.591 14.591 0 015.923 1.139 13.628 13.628 0 014.306 2.888zM74.913 396.432a6.105 6.105 0 002.376 1.4 8.606 8.606 0 002.574.412 5.884 5.884 0 003.646-1.271 11.057 11.057 0 002.854-3.333 18.309 18.309 0 001.848-4.669 21.433 21.433 0 00.66-5.28 9.315 9.315 0 00-1.071-5.041 3.336 3.336 0 00-2.921-1.617 4.4 4.4 0 00-2.491.875 11.843 11.843 0 00-2.475 2.376 19.81 19.81 0 00-2.223 3.542 28.966 28.966 0 00-1.749 4.389zm1.815-19.008a20.868 20.868 0 015.379-5.429 11.207 11.207 0 016.369-2 9.48 9.48 0 013.844.759 7.673 7.673 0 012.97 2.326 11.259 11.259 0 011.914 3.976 21.271 21.271 0 01.677 5.709 26.693 26.693 0 01-.611 5.725 27.791 27.791 0 01-1.7 5.264 23.267 23.267 0 01-2.623 4.537 19.744 19.744 0 01-3.383 3.564 15.247 15.247 0 01-3.943 2.343 11.458 11.458 0 01-4.307.841 10.1 10.1 0 01-3.993-.759 9.73 9.73 0 01-3.1-2.079l-1.651 13.338h-8.844l5.478-45.045h4.653a3.248 3.248 0 012.211.693 2.793 2.793 0 01.792 2.211zm35.871.693a23.454 23.454 0 012.722-4.059 12.509 12.509 0 012.987-2.624 7.373 7.373 0 013.168-1.084 6.536 6.536 0 013.267.577l-1.653 8.543a7.793 7.793 0 00-3.647-.693 5.51 5.51 0 00-3.135 1.32 10.715 10.715 0 00-2.59 3.465 27.384 27.384 0 00-2.013 5.742l-1.845 15.246h-8.943l4.125-34.056h4.686a3.248 3.248 0 012.211.693 2.793 2.793 0 01.792 2.211zm25.608 20.1a5.629 5.629 0 003.432-1.122 9.3 9.3 0 002.574-3.02 16.754 16.754 0 001.633-4.406 23.621 23.621 0 00.577-5.313q0-3.96-1.221-5.726a4.294 4.294 0 00-3.795-1.766 5.707 5.707 0 00-3.417 1.104 9.085 9.085 0 00-2.59 2.986 16.466 16.466 0 00-1.634 4.405 23.841 23.841 0 00-.577 5.33q0 3.894 1.221 5.709a4.252 4.252 0 003.797 1.816zm-.792 6.831a14.567 14.567 0 01-5.28-.94 11.771 11.771 0 01-4.224-2.758 12.686 12.686 0 01-2.788-4.488 17.246 17.246 0 01-1.007-6.1 23.031 23.031 0 011.452-8.267 20.987 20.987 0 013.922-6.589 18.07 18.07 0 015.775-4.34 16.031 16.031 0 016.963-1.568 14.435 14.435 0 015.264.94 11.7 11.7 0 014.207 2.772 13.052 13.052 0 012.805 4.5 17 17 0 011.023 6.1 22.8 22.8 0 01-1.452 8.217 20.859 20.859 0 01-3.943 6.567 18.532 18.532 0 01-5.775 4.356 15.787 15.787 0 01-6.942 1.595zm44.253-26.433a6.088 6.088 0 00-2.393-1.4 8.766 8.766 0 00-2.59-.412 5.816 5.816 0 00-3.63 1.271 11.169 11.169 0 00-2.838 3.333 18.27 18.27 0 00-1.848 4.686 21.63 21.63 0 00-.66 5.3 9.356 9.356 0 001.056 5.016 3.324 3.324 0 002.937 1.617 4.429 4.429 0 002.475-.875 11.181 11.181 0 002.475-2.393 21.775 21.775 0 002.228-3.564 27.9 27.9 0 001.766-4.389zm11.814-23.265l-6.1 49.2h-4.851a3.885 3.885 0 01-1.436-.231 2.23 2.23 0 01-.907-.627 2.289 2.289 0 01-.462-.924 4.757 4.757 0 01-.132-1.155l.165-3.861a20.434 20.434 0 01-5.363 5.346 11.225 11.225 0 01-6.286 1.947 9.6 9.6 0 01-3.861-.759 7.644 7.644 0 01-2.987-2.326 11.259 11.259 0 01-1.914-3.977 21.271 21.271 0 01-.676-5.709 26.538 26.538 0 01.611-5.693 27.056 27.056 0 011.707-5.263 24.384 24.384 0 012.64-4.554 19.8 19.8 0 013.366-3.58 14.978 14.978 0 013.927-2.343 11.541 11.541 0 014.34-.842 9.9 9.9 0 017.128 2.838l2.178-17.49zm34.056 15.18l-4.125 34.02h-4.623q-3.234 0-3.234-3.069l.1-3.069a17.506 17.506 0 01-5.462 5 12.487 12.487 0 01-6.122 1.633 8.514 8.514 0 01-3.861-.858 7.391 7.391 0 01-2.838-2.508 10.728 10.728 0 01-1.584-4.043 17.463 17.463 0 01-.066-5.494l2.541-21.615h9.108l-2.574 21.615a7.955 7.955 0 00.314 4.34 2.535 2.535 0 002.458 1.271 5.223 5.223 0 002.459-.676 9.464 9.464 0 002.442-1.931 16.029 16.029 0 002.178-3.02 19.147 19.147 0 001.667-3.944l2.145-17.655zm29.5 28.017a27.408 27.408 0 01-3.185 3.085 15.775 15.775 0 01-3.135 2 13.665 13.665 0 01-3.382 1.089 21.622 21.622 0 01-3.927.33 13.462 13.462 0 01-5.329-1.007 11.242 11.242 0 01-4.026-2.871 12.613 12.613 0 01-2.541-4.5 18.72 18.72 0 01-.875-5.907 23.083 23.083 0 011.352-7.916 21.4 21.4 0 013.762-6.6 18.194 18.194 0 015.725-4.538 15.775 15.775 0 017.243-1.683 13.021 13.021 0 015.808 1.188 12.309 12.309 0 014.29 3.63l-2.937 3.4a2.616 2.616 0 01-.726.611 1.894 1.894 0 01-1.98-.066q-.462-.313-1.039-.677a7.956 7.956 0 00-1.4-.677 6.255 6.255 0 00-2.178-.313 6.377 6.377 0 00-3.316.957 9.123 9.123 0 00-2.822 2.739 14.813 14.813 0 00-1.947 4.306 20.6 20.6 0 00-.726 5.693 8.292 8.292 0 001.568 5.461 5.073 5.073 0 004.075 1.869 7.156 7.156 0 002.871-.495 9.731 9.731 0 001.914-1.089q.792-.594 1.436-1.089a2.393 2.393 0 011.5-.495 1.869 1.869 0 01.874.215 2.656 2.656 0 01.743.577zm6.3-1.122v-.545q0-.313.049-.924t.165-1.617q.116-1.007.314-2.624l1.824-14.654h-2.97a1.371 1.371 0 01-1.073-.462 1.656 1.656 0 01-.28-1.386l.423-3.563 5.148-.99 2.8-8.811a1.929 1.929 0 012.013-1.485h4.884l-1.287 10.362h7.953l-.759 6.336h-7.953l-1.749 14.157q-.165 1.353-.264 2.145t-.148 1.221q-.05.429-.049.577v.215a2.9 2.9 0 00.528 1.832 1.885 1.885 0 001.584.676 3.137 3.137 0 001.023-.148 4.28 4.28 0 00.742-.33q.313-.181.577-.33a1.127 1.127 0 01.561-.149.908.908 0 01.627.181 1.943 1.943 0 01.4.611l1.98 4.356a14.028 14.028 0 01-4.191 2.244 14.424 14.424 0 01-4.587.759 8.43 8.43 0 01-5.957-2.029 7.692 7.692 0 01-2.323-5.628zm35.079.792a5.629 5.629 0 003.432-1.122 9.3 9.3 0 002.574-3.02 16.754 16.754 0 001.633-4.406 23.621 23.621 0 00.577-5.313q0-3.96-1.221-5.726a4.294 4.294 0 00-3.795-1.766 5.707 5.707 0 00-3.416 1.106 9.085 9.085 0 00-2.59 2.986 16.465 16.465 0 00-1.634 4.405 23.841 23.841 0 00-.577 5.33q0 3.894 1.221 5.709a4.252 4.252 0 003.801 1.814zm-.792 6.831a14.567 14.567 0 01-5.28-.94 11.771 11.771 0 01-4.224-2.756 12.686 12.686 0 01-2.788-4.488 17.246 17.246 0 01-1.007-6.1 23.031 23.031 0 011.452-8.267 20.987 20.987 0 013.927-6.583 18.071 18.071 0 015.775-4.34 16.031 16.031 0 016.963-1.568 14.435 14.435 0 015.264.94 11.7 11.7 0 014.207 2.772 13.052 13.052 0 012.805 4.5 17 17 0 011.023 6.1 22.8 22.8 0 01-1.452 8.217 20.86 20.86 0 01-3.943 6.567 18.532 18.532 0 01-5.775 4.356 15.787 15.787 0 01-6.942 1.587zm44.154-27.786a3.051 3.051 0 01-.776.809 1.687 1.687 0 01-.94.247 2.577 2.577 0 01-1.238-.33q-.61-.33-1.369-.709a13.773 13.773 0 00-1.733-.709 7.158 7.158 0 00-2.293-.33 5.462 5.462 0 00-3.68 1.056 3.366 3.366 0 00-1.2 2.64 2.521 2.521 0 00.957 2.063 9.917 9.917 0 002.409 1.386q1.452.611 3.135 1.238a14.572 14.572 0 013.135 1.617 8.319 8.319 0 012.409 2.541 7.435 7.435 0 01.957 3.96 11.643 11.643 0 01-.99 4.752 11.491 11.491 0 01-2.854 3.927 13.944 13.944 0 01-4.5 2.673 16.719 16.719 0 01-5.907.99 15.705 15.705 0 01-3.152-.313 15.374 15.374 0 01-2.9-.891 13.9 13.9 0 01-2.475-1.337 9.465 9.465 0 01-1.865-1.65l2.244-3.4a2.942 2.942 0 01.957-.924 2.624 2.624 0 011.353-.33 2.262 2.262 0 011.32.413q.594.412 1.32.891a10.141 10.141 0 001.733.891 7.012 7.012 0 002.624.413 6.83 6.83 0 002.161-.313 4.744 4.744 0 001.584-.858 3.439 3.439 0 00.957-1.271 3.79 3.79 0 00.314-1.518 2.749 2.749 0 00-.957-2.244 9.318 9.318 0 00-2.392-1.386q-1.436-.594-3.118-1.155a13.009 13.009 0 01-3.118-1.518 8.164 8.164 0 01-2.393-2.475 7.54 7.54 0 01-.957-4.059 11.816 11.816 0 01.875-4.472 11.479 11.479 0 012.557-3.844 12.566 12.566 0 014.174-2.706 15.071 15.071 0 015.759-1.023 14.591 14.591 0 015.923 1.139 13.628 13.628 0 014.306 2.888z"/></g><g filter="url(#e)" transform="translate(.002 .001)"><path class="h" d="M504.097 244.774v43.59c0 37.844-30.678 71.066-68.522 74.205l-74.6 6.189"/></g><g filter="url(#g)" transform="translate(.002 .001)"><path class="h" d="M50.939 394.479c-15.7 1.3-28.432-10.371-28.432-26.073V247.911"/></g></svg>